<?xml version="1.0" encoding="UTF-8"?>
<svg id="svg3417" xmlns="http://www.w3.org/2000/svg" viewBox="0 0 99.35 48.92">
  <defs>
    <style>
      .cls-1 {
        fill: #8d7ddb;
      }
    </style>
  </defs>
  <g id="g3458">
    <path id="path3468" class="cls-1" d="m17.1,19.27c2.34-.21,6.16-.21,8.5,0,2.34.21.42.38-4.25.38s-6.59-.17-4.25-.38Zm8.98-7.99c1.78-.22,4.93-.22,7,0,2.07.22.62.4-3.23.4s-5.55-.17-3.77-.39Z"/>
    <path id="path3466" class="cls-1" d="m74.39,46.82c-2.33-2.17-2.33-2.25-1.64-18.75,1.01-24.23,2.14-28.07,8.2-28.07h2.21l-.53,22.75c-.29,12.51-.94,23.54-1.43,24.5-1.23,2.37-3.97,2.2-6.79-.43Zm-16.71-1.01c-1.19-.58-2.44-2.11-2.76-3.41-1.63-6.48.88-29.18,3.85-34.9,1.5-2.9,3.3-4.46,5.16-4.49,1.05-.02.94,36.63-.13,41.73-.51,2.43-2.55,2.79-6.1,1.06Zm31.99-1.42c-.98-2.55.4-30.58,1.67-33.89,1.37-3.6,4.85-7.5,6.69-7.5,1.06,0,1.33,4.06,1.33,19.99v19.99l-3.62,1.51c-4.56,1.91-5.29,1.89-6.06-.09Z"/>
    <path id="path3462" class="cls-1" d="m17.34,46.08c-3.03-.42-6.48-1.37-7.67-2.11-2.12-1.33-3.7-5.61-2.37-6.44,1.36-.84,37.23-.75,38.05.1,1.27,1.31-.02,6.31-1.87,7.3-2.39,1.27-19.76,2.03-26.14,1.15Zm-5.8-18.14C6.22,26.89.74,23.61.08,21.09c-.48-1.82.35-1.87,22.57-1.48,12.68.23,23.19.54,23.35.7.16.16.03,1.91-.29,3.89-.49,3.01-1.07,3.69-3.59,4.2-4.31.86-25.47.54-30.58-.47Zm.32-18.14c-3.5-1.22-8.68-5.76-8.2-7.19.21-.62,7.97-.89,20.77-.73,18.19.23,20.64.46,22.29,2.07,2.81,2.75,1.39,5.67-3.13,6.41-5.94.98-28.43.58-31.72-.57Z"/>
  </g>
</svg>