<?xml version="1.0" encoding="UTF-8"?>
<svg id="Layer_1" data-name="Layer 1" xmlns="http://www.w3.org/2000/svg" viewBox="0 0 3559.12 832.35">
  <defs>
    <style>
      .cls-1 {
        fill: #e13795;
      }

      .cls-2, .cls-3, .cls-4, .cls-5 {
        isolation: isolate;
      }

      .cls-2, .cls-4, .cls-5 {
        font-family: Montserrat-SemiBold, Montserrat;
        font-size: 200px;
        font-weight: 600;
      }

      .cls-6 {
        letter-spacing: .05em;
      }

      .cls-7 {
        letter-spacing: .02em;
      }

      .cls-8 {
        letter-spacing: .05em;
      }

      .cls-4 {
        letter-spacing: -.04em;
      }

      .cls-9 {
        font-family: SegoePro-LightItalic, 'Segoe Pro';
        font-size: 120px;
        font-style: italic;
        font-weight: 300;
      }

      .cls-5 {
        letter-spacing: 0em;
      }
    </style>
  </defs>
  <g id="Layer_1-2" data-name="Layer 1-2">
    <g>
      <g>
        <path class="cls-1" d="m391.46,822.11L10.24,440.89c-13.65-13.65-13.65-35.78,0-49.43L391.46,10.24c13.65-13.65,35.78-13.65,49.43,0l381.22,381.22c13.65,13.65,13.65,35.78,0,49.43l-381.22,381.22c-13.65,13.65-35.78,13.65-49.43,0Z"/>
        <path d="m414.48,817.23c-7.31-.41-14.14-3.79-19.32-8.97L23.55,436.65c-11.29-11.29-11.29-29.65,0-40.94L395.69,23.57c5.47-5.47,12.74-8.48,20.47-8.48s15,3.01,20.47,8.48l372.14,372.14c11.29,11.29,11.29,29.66,0,40.94l-372.14,372.14c-5.86,5.86-13.8,8.9-22.16,8.43h.01Zm1.69-787.96c-3.95,0-7.66,1.54-10.46,4.33L33.57,405.72c-5.76,5.76-5.76,15.15,0,20.91l371.71,371.71c2.69,2.69,6.23,4.53,10.03,4.74,4.27.24,8.32-1.31,11.32-4.31l372.14-372.14c2.99-3,4.55-7.05,4.31-11.32-.21-3.8-2.05-7.34-4.74-10.03L426.63,33.57c-2.79-2.79-6.51-4.33-10.46-4.33h0v.02Z"/>
      </g>
      <g>
        <path d="m369.33,580.27h254.1c3.32,0,5.6-3.35,4.36-6.42-3.78-9.37-14.98-26.74-47.52-36.5-1.29-.39-2.21-1.53-2.27-2.88-.39-8.74-4.43-39.75-42.75-29.42-.67.18-1.37-.17-1.61-.83-1.89-5.29-10.72-26.76-29.64-26.76,0,0-24.3-.41-30.9,21.77-.25.85-1.08,1.37-1.96,1.28-5.01-.5-21.04-.64-31.34,15.85-.33.52-.86.88-1.48.94-4.87.48-26.83,3.74-29.08,24.04,0,0-24.73,3.81-42.8,33.79-1.36,2.25.27,5.13,2.89,5.13h0Z"/>
        <path d="m416.32,307.2l-37.19-49.21c-2.55-3.38-6.54-5.36-10.78-5.36h-105.59c-18.3,0-15.97,13.33-15.97,13.33l.77,79.57c.04,4.62-1.5,9.12-4.38,12.74l-10.54,13.24c-4.24,5.32-6.37,12.01-6,18.8l3.43,62.33c.15,2.72-.12,5.46-.81,8.1l-24.11,92.98c-.38,1.46-.69,2.94-.83,4.44-1.81,19.86,20.05,22.13,20.05,22.13,9.2,2.01,15.23-.85,18.96-4.21,2.88-2.6,4.84-6.06,5.86-9.8l27.85-101.69,1.9-45.92,37.51,44.64c2.27,2.7,2.72,6.49,1.15,9.65l-38.07,76.53c-1,2-1.84,4.09-2.42,6.25-4.73,17.61,8.59,24.56,8.59,24.56,7.93,4.97,14.91,4.97,19.91,3.73,4.55-1.13,8.31-4.32,10.44-8.51l50.54-99.63c3.36-6.62,3-14.51-.94-20.8l-5.56-8.86c-2.31-3.69-2.45-8.33-.37-12.15l54.69-100.21c9.52-15.86,1.9-26.65,1.9-26.65v-.02h.01Zm-137.82,8.71l1.56-24.89c.09-1.42,1.27-2.53,2.7-2.53h24.16c1.02,0,1.52,1.24.79,1.95l-27.22,26.39c-.77.75-2.06.15-1.99-.92h0Zm60.06,74.55l-16.89-13.74c-1.29-1.05-1.14-3.05.29-3.9l33.4-19.8c1.24-.74,2.79.36,2.48,1.77-2.11,9.49-11.41,27.72-15.15,34.82-.8,1.52-2.8,1.93-4.13.84h0Z"/>
        <circle cx="438.21" cy="261.51" r="36.17"/>
        <path d="m471.87,525.82l-256.75-204.42c-4.34-3.46-5.06-9.78-1.6-14.12l.13-.16c3.46-4.34,9.78-5.06,14.12-1.6l256.75,204.42-12.65,15.89h0Z"/>
      </g>
    </g>
    <g>
      <g class="cls-3">
        <text class="cls-4" transform="translate(900.95 357.22)"><tspan x="0" y="0">P</tspan></text>
        <text class="cls-2" transform="translate(1037.15 357.22)"><tspan x="0" y="0">A</tspan></text>
        <text class="cls-2" transform="translate(1184.95 357.22)"><tspan x="0" y="0">GE EN </tspan></text>
        <text class="cls-5" transform="translate(1879.74 357.22)"><tspan x="0" y="0">C</tspan></text>
        <text class="cls-2" transform="translate(2022.14 357.22)"><tspan x="0" y="0">ON</tspan></text>
        <text class="cls-2" transform="translate(2352.54 357.22)"><tspan x="0" y="0">S</tspan></text>
        <text class="cls-2" transform="translate(2476.34 357.22)"><tspan x="0" y="0">TRU</tspan></text>
        <text class="cls-2" transform="translate(2900.73 357.22)"><tspan x="0" y="0">C</tspan></text>
        <text class="cls-2" transform="translate(3044.53 357.22)"><tspan x="0" y="0">TION</tspan></text>
      </g>
      <text class="cls-9" transform="translate(1315.29 580.27) scale(.99 1)"><tspan class="cls-8" x="0" y="0">ELLE SERA DISPONIBLE BIEN</tspan><tspan class="cls-7" x="1551.91" y="0">TÔ</tspan><tspan class="cls-6" x="1709.05" y="0">T!</tspan></text>
    </g>
  </g>
</svg>