<?xml version="1.0" encoding="UTF-8"?>
<svg id="Layer_1" data-name="Layer 1" xmlns="http://www.w3.org/2000/svg" viewBox="0 0 2566.93 101.45">
  <defs>
    <style>
      .cls-1 {
        fill: none;
      }

      .cls-2 {
        fill-rule: evenodd;
      }
    </style>
  </defs>
  <path class="cls-1" d="m2560.34,0c-52.53,5.43-105.26,9.72-158.16,12.94-13.22.81-26.48,1.43-39.71,2.15l-19.86,1.05-19.89.84-39.79,1.65-39.84,1.29-19.92.62-19.94.5-39.89.97c-26.62.48-53.22,1.08-79.87,1.42l-39.96.58-39.99.47-80.03.86c-106.76,1.07-213.69,2.22-320.69,4.77-106.75,2.5-213.33,5.08-319.98,6.62l-39.99.65-39.98.48-79.97.91-79.96.56-19.99.14-19.99.03-39.97.06c-106.58.1-213.15-.53-319.62-2.82-106.47-2.22-212.87-5.72-319.07-11.34C218.09,19.81,112.08,12.02,6.65.66L0,62.15c106.89,11.52,213.93,19.37,320.97,25.04,107.04,5.66,214.09,9.18,321.11,11.41,107.02,2.3,214,2.94,320.95,2.83l40.11-.06,20.05-.03,20.05-.14,80.19-.57,80.18-.92,40.09-.48,40.08-.65c106.86-1.55,213.77-4.13,320.49-6.63,106.47-2.54,213.07-3.68,319.84-4.75l80.11-.86,40.08-.47,40.1-.58c26.73-.34,53.5-.94,80.25-1.42l40.16-.98,20.08-.5,20.1-.63,40.19-1.3,40.22-1.66,20.11-.85,20.12-1.06c13.42-.73,26.83-1.36,40.25-2.18l40.26-2.65,10.07-.66c3.36-.23,6.71-.53,10.07-.79l20.13-1.63c26.85-1.97,53.68-4.87,80.52-7.45l-6.6-61.49Z"/>
  <path class="cls-2" d="m40.7,38.82c2.12.68,4.42.94,6.86.87-2.32-.23-4.4-1.04-6.86-.87Z"/>
  <path class="cls-2" d="m47.34,38.26c2.36.11,4.4,1.02,6.86.87-2.25-.4-4.31-1.23-6.86-.87Z"/>
  <path class="cls-2" d="m64.87,42.45c2.38.56,2.58.16,6.24.42-1.16-.45-2.46-.52-3.68-.78-1.56.05-.85.34-2.56.37Z"/>
  <path class="cls-2" d="m131.5,59.85c.96.26,1.93.52,2.89.78,1.72-.31,3.14.14,4.82-.07-2.39-.71-4.96-.94-7.71-.71Z"/>
  <path class="cls-2" d="m60.33,39.78c-1.29.24,3.71,1.19,5.23.95.17-.47-1.77-.35-3.58-1.03-.28.16-.61.32-1.64.08Z"/>
  <path class="cls-2" d="m142.19,61.09c2.97.26,2.91.7,4.34,1.17,1.4-.3.83-.78-1.07-1.38-1.08.07-2.18.14-3.27.21Z"/>
  <path class="cls-2" d="m105.18,47.58c-1.1.36,4.31,1.03,6.15.57-1.84-.76-4.28.07-6.15-.57Z"/>
  <path class="cls-2" d="m171.11,64.65c1.15.14,3.39.1,2.27.31,1.44.41,3.24-.14,4.82-.14,1.06.57,3.56.96,6.62,1.41.28-1.01,5.52-.52,9.73-.52-2.31-.21-4.69-.23-6.8-.91-.19.69-1.47.3-4.91.38-.15-.18-.33-.37-1.36-.62-2.17.14-4.23-.02-6.17-.48-2.11.13-4.05.28-4.19.57Z"/>
  <path class="cls-2" d="m115.03,48.87c.97.26,1.93.52,2.89.78.16-.18,1.11-.45,2.44-.16,1.31-.25-3.76-1.02-5.34-.62Z"/>
  <path class="cls-2" d="m125.61,46.26c2.26.36,4.62.44,7.08.27-2.38-.31-6.74-.88-7.08-.27Z"/>
  <path class="cls-2" d="m234.93,72.45c2.12.56,6.09.75,6.27.23-2.08-.12-4.1-.38-6.27-.23Z"/>
  <path class="cls-2" d="m148.59,48.63c2.53.3,4.86,1.16,7.69.71-2.5-.4-5.01-.8-7.69-.71Z"/>
  <path class="cls-2" d="m226.42,63.22c3.28.48,3.04-.12,7.18-.08-1.02-.11-2.04-.23-2.99-.49-1.42.74-5.11-.23-4.19.57Z"/>
  <path class="cls-2" d="m175.4,49.14c1.09-.33-4.39-.76-5.78-1.48-2.5.38,3.61,1.07,5.78,1.48Z"/>
  <path class="cls-2" d="m202.02,52.11c2.58.15,5.06.57,7.79.35-3.01-.43-6.1-.66-9.05-1.22-2.75.04,3.99.82,1.26.87Z"/>
  <path class="cls-2" d="m284.8,72.42c-1.21.71,4.51.43,6.09.65,1.15-.57-4.51-.45-6.09-.65Z"/>
  <path class="cls-2" d="m291.13,70.15c-1.63-.6-3.69.04-5.27-.73-1.5.24-1.61.57-.35,1,2.36-.48,5.47.36,5.62-.27Z"/>
  <path class="cls-2" d="m333.34,80.33c2.73.47,5.48.84,8.47.59-2.81-.24-5.56-.61-8.47-.59Z"/>
  <path class="cls-2" d="m185.44,43.53c1.37.57,3.02.39,4.43.86,2.87-.12,1.06-.6-1.17-1.11-1.08.08-2.17.17-3.26.26Z"/>
  <path class="cls-2" d="m205.04,48.26c1.86.69,3.96.71,5.97.98,1.06-.31-4.14-1.43-5.97-.98Z"/>
  <path class="cls-2" d="m201.44,45.16c.47.17,1,.15,1.54.12,5.92,1.11,12.3.97,18.27,1.94,3.55-.15,1.51-.73,3.52-1-3.34-.64-2.88.21-5.52-.05-2.78-.55-.7-.69-3.61-.92-.34.67-4.69.14-7.24.33-1.63-.61-3.47-.61-5.16-1.04-3.54-.02,1.72.65-1.82.63Z"/>
  <path class="cls-2" d="m327.83,73.58c-1.56-.26,3.1-.26,4-.12,1.83-.55-2.99-.09-3.72-.62-3.23.09-1.38.5-2.63.72,1.97.38,3.99.64,6,.9,2.24-.27-1.59-.76-3.64-.88Z"/>
  <path class="cls-2" d="m151.9,29.61c2.45.51,4.79,1.32,7.58.95-2.51-.37-4.9-1.01-7.58-.95Z"/>
  <path class="cls-2" d="m151.47,28.68c-1.32.33,3.82.82,5.31.62-1.53-.84-3.6-.26-5.31-.62Z"/>
  <path class="cls-2" d="m161.81,30.65c2.13-.1,1.39-.47,2.63-.65-1.24-.24-2.56-.21-3.79-.48-1.11.24-.25.66,1.16,1.13Z"/>
  <path class="cls-2" d="m337.18,73.91c-.49.76,6.06.57,8.27,1.09,2.36-.72-5.56-1.02-8.27-1.09Z"/>
  <path class="cls-2" d="m136.55,20.01c2.26.36,5.85.32,10.27.05-3.41-.04-6.7-.42-10.27-.05Z"/>
  <path class="cls-2" d="m366.26,76.25c.14-.41-3.6-1.15-6-.84-.15.38,3.53,1.29,6,.84Z"/>
  <path class="cls-2" d="m207.3,37.95c2.36.68,11.18.95,7.14-.08-2.55.49-4.73-.01-7.14.08Z"/>
  <path class="cls-2" d="m258.18,49.98c.32.71,7.43,1.18,10.78.71-1.52-.27-.72-.39.19-.5-3.39-.83-7.51.4-10.97-.21Z"/>
  <path class="cls-2" d="m176.4,27.61c2.84.84,5.93,1.06,9.12.97-3.13-.1-5.86-1.19-9.12-.97Z"/>
  <path class="cls-2" d="m380.8,77.42c1.16.1,2.29.2,1.47.33,5.08-.3,9.7.75,14.81.42-7.27-.31-10.35-1.96-16.27-.76Z"/>
  <path class="cls-2" d="m240.91,41.09c1.59.69,3.65.09,5.51.05-1.02-.11-2.03-.23-2.98-.49-.16.2-1.06.34-2.53.44Z"/>
  <path class="cls-2" d="m398.61,78.26c-1.97.36,2.33.28,2.91.67-1.24-.85,2.71.09,5.62-.33-1.56-.76-3.79.34-5.35-.42-1.1.14-2.2.27-3.18.09Z"/>
  <path class="cls-2" d="m407.79,79.02c4.9.47,5.68,1.51,9.83,1.17-4.65-.68,1.58-.77-2.68-1.42-.39.88-4.59-.08-7.15.25Z"/>
  <path class="cls-2" d="m245.17,35.93c3.53.44,8.7.36,5.69-.47-3.05.21-4.18-.02-5.69.47Z"/>
  <path class="cls-2" d="m434.05,80.35c2.89.71,6.14.36,9.18.66,1.48.36-.49.57-2.62.78,5.3.58,5.38-.69,12.62-.21-1.39-.61-1.59-.37-4.39-.96-3.54.33,1.15.2,2.1.73-5.67-.2-11.08-1.24-16.9-1Z"/>
  <path class="cls-2" d="m361.3,58.88c3.23.54,7.25.2,8.7-.17-3.35-.25-7.17-.45-8.7.17Z"/>
  <path class="cls-2" d="m314.38,47.03c2.8.22.85.23,2.9.7,1.43-.2.71-.55,1.08-.82-1.23-.22-2.63.04-3.97.12Z"/>
  <path class="cls-2" d="m384.66,52.62c3.3.29,6.62.55,10.14.17-3.26.06-9.16-.77-10.14-.17Z"/>
  <path class="cls-2" d="m341.28,35.33c1.69.43,3.53.39,5.25.67,2.74-.11-3.98-.73-1.26-.83-1.25-.2-2.63.07-3.99.16Z"/>
  <path class="cls-2" d="m303.76,26.03c2.95.51,6.11.42,9.38.1-3.01-.07-8.63-.6-9.38-.1Z"/>
  <path class="cls-2" d="m463.51,60.34c.96.21,1.94.43,2.9.64.29-.18.58-.36,1.62-.18,1.52-.32-3.24-.86-4.52-.46Z"/>
  <path class="cls-2" d="m360.69,33.58c3.19.59,6.69.29,9.77,1.17,1.47-.22-.31-.61-.46-.92,2.21-.12,5.37.51,5.51-.08-1.73-.29-3.72.19-5.35-.42-1.66.81-5.77-.14-9.47.25Z"/>
  <path class="cls-2" d="m479.12,58.1c1.29.05,2.48.38,3.81.3,2.57-.24.27-.89-2.01-.99-3.52.1,1.74.59-1.79.69Z"/>
  <path class="cls-2" d="m405.42,35.5c.08.64,10.12,1.36,10.77.59-3.62-.1-7.32.07-10.77-.59Z"/>
  <path class="cls-2" d="m400.02,30.74c2.43.52,5.03.55,7.77.17-2.61-.03-5.09-.39-7.77-.17Z"/>
  <path class="cls-2" d="m443.18,39.42c2.54.21,4.99.66,7.69.34-2.51-.28-5.02-.56-7.69-.34Z"/>
  <path class="cls-2" d="m470.54,41.65c1.72.3,3.62.06,5.34.36.88-.17-1.14-.47-2.1-.73-1.08.12-2.17.25-3.24.37Z"/>
  <path class="cls-2" d="m482.21,41.78c1.9.54,4.1.17,6.06.52,1.03-.24-4.25-1.06-6.06-.52Z"/>
  <path class="cls-2" d="m588.98,63.45c.83-.06.47-.15.09-.25,1.07-.09,2,.2,3.01.36,1.88-.08,1.22-.86,4.06-.5,2.78-.37-4.14-.29-1.38-.56-2.43-.01-9.78.22-5.77.95Z"/>
  <path class="cls-2" d="m597.75,62.86c.95.3,2,.21,3.09.11,1.1.21,2.2.42,1.37.56,1.25.18,2.63-.12,3.98-.24-1.22-.26-2.44-.51-3.64-.76-1.7.41-3.13.04-4.79.34Z"/>
  <path class="cls-2" d="m614.72,65.88c2.01.22,4.11.11,6.25-.09-1.92-.51-4.08-.24-6.25.09Z"/>
  <path class="cls-2" d="m523.99,45.24c3.28.27,3.24-.64,1.87-.95-3.88-.14-1.17.61-1.87.95Z"/>
  <path class="cls-2" d="m518.33,43.5c3.96.37,9.61.92,11.67.03-3.94.12-7.53-.79-11.67-.03Z"/>
  <path class="cls-2" d="m529.42,45.3c2.6-.02,5.09.29,7.78.02-2.52-.22-5.13-.18-7.61-.52-.71.15.9.37-.17.5Z"/>
  <path class="cls-2" d="m541.81,47.91c6.82-.01,8.32.46,4.22-1-3.35.26-3.08.66-4.22,1Z"/>
  <path class="cls-2" d="m637.94,66.24c2.45.44,5.02.51,7.71.21-2.54-.17-5-.58-7.71-.21Z"/>
  <path class="cls-2" d="m675.37,68.39c7.46-.53,13.65.22,18.1-.67-5.67-.11-11.34-.19-17.13.05-.73-.19.86-.32,1.71-.46-5.12-.59-5.57.42-2.68,1.08Z"/>
  <path class="cls-2" d="m588.41,48.26c3.96.49,1.7-.93,4.05-.5.46-.81-5.27.16-4.05.5Z"/>
  <path class="cls-2" d="m592.39,48.01c2.26.25,4.57.3,7.04-.14-2.26-.23-4.61-.17-7.04.14Z"/>
  <path class="cls-2" d="m711.18,68.32c.97.19,1.96.39,2.93.58,1.55-.18.82-.41,2.52-.59-1.83.07-3.54-.27-5.44.01Z"/>
  <path class="cls-2" d="m643,52.74c1.23-.27-.63-.61,2.59-.82-3.6-.24-8.2.6-2.59.82Z"/>
  <path class="cls-2" d="m752.84,43.9c3.57.83,6.71,0,7.14-.5-2.32-.04-4.74.26-7.14.5Z"/>
  <path class="cls-2" d="m830.53,45.66c3.19.52,3.09-.61,6.97-.04,1.46.5-3.05.3-4.04.58,3.03.33,5.74,0,7.12-.55-2.02-.07-2.79-.21-2.93-.55,3.52-.6,6.59.41,10.13-.26-1.79-.03-3.65.09-5.28-.45-4.53.58-8.5.27-10.79-.13-.18.47,3.23.98-1.18,1.39Z"/>
  <path class="cls-2" d="m859.89,45.77c.98.18,1.94.36,2.93.55,3.08-.43,3.13-.18,4.85-.71-2.66-.47-7.26.58-4.54-.31-1.95-.32-2.95.36-3.23.47Z"/>
  <path class="cls-2" d="m871.27,46.55c.02-.34,2.77-.64,4.91-.96-.73-.14-1.46-.27-2.19-.41-.83.16-1.61.18-2.36.1-.19.48.7.34-2.49.61,1.4.23.54.43,2.13.66Z"/>
  <path class="cls-2" d="m883.43,47.21c2.72-.46,5.16-.02,7.87-.41-3.25-.34-6.78.22-9.91-.51-1.59.55,1.09.34,2.04.92Z"/>
  <path class="cls-2" d="m896.15,46.1c-2.33.27-3.22.55-1.04.88,1.04-.02,2.07-.05,3.16-.22-.03-.21-.79-.43-2.12-.66Z"/>
  <path class="cls-2" d="m898.33,46.51c1.42.23.57.43,2.13.66,1.55-.17.85-.54,2.42-.35.88-.2-1.15-.44-2.11-.66-.81.12-1.62.23-2.43.35Z"/>
  <path class="cls-2" d="m903.27,45.55c-.53.26,5.28,1.12,7.55.6-2.5-.27-4.94-.71-7.55-.6Z"/>
  <path class="cls-2" d="m947.59,47.19c1.94-.47,3.68-.31,5.59-.6-1.67-.5-3.64.08-5.29-.42-1.62.33-3.3.66-.29,1.02Z"/>
  <path class="cls-2" d="m971.59,46.96c1.98.32,4.04.33,6.17.04l-2.93-.53c-1.07.16-2.15.33-3.24.49Z"/>
  <path class="cls-2" d="m986.2,47.18c3.04.17,6.12.2,9.18.31,2.57-.28-4.64-.62-2.05-.9-1.89-.15-1.58.2-2.42.37-1.58.14-3.01-.31-4.7.22Z"/>
  <path class="cls-2" d="m996.62,45.85c1.73.24,3.7-.33,5.43-.09-.26-.48-2.3-.56-5.22-.67-1.44.25,1.87.52-.22.76Z"/>
  <path class="cls-2" d="m1013.8,47.87c4.84-.7,9.26.05,13.87.06,3.23-.79-5.46-.87-7.25-1.55-.89.72.27.79-4.93.99-3.17-.57-2.61-.96-6.66-.94-.84.72.95.88,4.98,1.44Z"/>
  <path class="cls-2" d="m1015.05,46.22c3.29.19,6.71-.1,9.98.18-.19-.34-6.91-.91-9.98-.18Z"/>
  <path class="cls-2" d="m1031.42,45.64c1.22.25,2.53.12,3.73.39,2.24-.38-1.73-.77,1.1-1.15-1.51-.09-3.09.03-4.7.25,3.14.41,3.23.1-.14.51Z"/>
  <path class="cls-2" d="m1053.81,45.54c1.19.32,2.5.25,3.75.39-.54-.3,1.46-.59-.52-.9-.37.47-1.09.15-3.23.51Z"/>
  <path class="cls-2" d="m1319.87,47.07c3.74.38,7.69.02,11.68-.48-3.3-.18-6.53-.52-9.86-.56-1.24.35-1.07.69-1.82,1.03Z"/>
  <path class="cls-2" d="m1395.33,43.87c1.66.5,3.63-.11,5.37.06,1.27-.38-3.84-.63-5.37-.06Z"/>
  <path class="cls-2" d="m1473.86,43.41c-.1.51,6.51.4,9.25-.14-3.03-.14-6.18.1-9.25.14Z"/>
  <path class="cls-2" d="m1511.6,42.94c3.74-.42,10.51-.55,11.82-1.08-3.63.04-10.44.31-11.82,1.08Z"/>
  <path class="cls-2" d="m1587.53,40.48c2.77.25,5.68-.09,8.47,0,.31-.41-5.94-.62-8.47,0Z"/>
  <path class="cls-2" d="m1667.48,40.91c.32-.3,2.27-.61,2.58-.92-1.52-.07-3.1.07-4.71.3,1.43.2.57.42,2.13.62Z"/>
  <path class="cls-2" d="m1927.44,81.37c6.08.31,12.59-.87,18.67-.56-2.83-.95-12.88.12-18.67.56Z"/>
  <path class="cls-2" d="m1946.99,80.43c2.46.39,5.07.26,7.79-.27-2.54-.08-5.14,0-7.79.27Z"/>
  <path class="cls-2" d="m1812.76,36.96c.68-.21.71-.43-.59-.64,5.2-.02,6.5.03,12.42-.3-5.06-.3-10.2-.28-15.44.05,2.83.29,1.86.59,3.61.88Z"/>
  <path class="cls-2" d="m1836.97,38.66c0-.38,3.62-.78,1.09-1.15-3.13.03-3.42.76-1.09,1.15Z"/>
  <path class="cls-2" d="m1830.7,36.26c-.87.22,1.18.42,2.13.63,2.11-.26,2.99-.52,3.31-.78-1.73-.22-3.75.55-5.44.15Z"/>
  <path class="cls-2" d="m2015.31,32.44c2.85.22,4.18-.37,5.58-.66-1.52-.08-3.1.05-4.7.27.69.12-.42.25-.88.39Z"/>
  <path class="cls-2" d="m2027.33,30.74c1.98.22,4.86-.6,4.84-.79-3.31,0-4.79.31-4.84.79Z"/>
  <path class="cls-2" d="m2040.99,31.45c6.61.29,13.39-.18,20.12-.38-1.34-.59,2.82-.51,5.64-.93-9.3.12-15.53.96-25.76,1.3Z"/>
  <path class="cls-2" d="m2064.27,30.8c2.73.32,5.72-.27,8.58-.44-2.77-.23-5.61-.17-8.58.44Z"/>
  <path class="cls-2" d="m2075.93,30.34c3.09-.02,6.1.23,9.26-.06-.45-.43-6.1-.61-9.26.06Z"/>
  <path class="cls-2" d="m2084.16,31.17c3.83,0,5.31.25,7.56.46,2.24-.56,3.79-.6,1.89-1.29-.79.87-6.36.35-9.45.83Z"/>
  <path class="cls-2" d="m2090.77,23.99c-1.09.59,4.46.25,6.16-.04-1.2-.31-2.51-.23-3.75-.36-1.52.2-.83.55-2.41.4Z"/>
  <path class="cls-2" d="m2125.66,28.4c-.82.09-.47.17-.06.25.49.08.97.16,1.45.24,2.25-.63,10.12-.21,14.9-1.05-.98-.12-1.12-.24-.66-.38-3.68.38-7.27.38-10.99.89-3.72-.58,1.88-.48,1.82-1.04-1.68-.39-3.81.84-5.49.44-1.23.16,3.21.87-.96.65Z"/>
  <path class="cls-2" d="m2104.7,23.65c4.86,0,9.77-.16,14.8-.79-4.88.05-9.83.4-14.8.79Z"/>
  <path class="cls-2" d="m2145.82,27.66c2.52-.08,2.31.79,5.95.7-1.24-.49-.49-.81,3.36-1.06-3.01-.26-6.17.1-9.31.36Z"/>
  <path class="cls-2" d="m2151.46,26.71c3.51.25,7.24-.26,10.93-.63-5.26-.14-6.26.3-10.93.63Z"/>
  <path class="cls-2" d="m2186.14,26.09c.99-.23-1.92-.39-.6-.63-5.13.05-10.6,1.43-15.54.77-.22,1.41,11.23-.52,16.14-.14Z"/>
  <path class="cls-2" d="m2168.61,25.75c5.28.29,10.89-.63,16.39-1.17-5.27-.35-10.91.7-16.39,1.17Z"/>
  <path class="cls-2" d="m2181.46,23.49c-.62.69,5.6-.16,7.76-.39-2.48-.31-5.25.59-7.76.39Z"/>
  <path class="cls-2" d="m2184.34,24.21c4.31.09,8.57.42,13.18-.61-4.51.67-8.66-.1-13.18.61Z"/>
  <path class="cls-2" d="m2206.4,24.73c-4.41-.52,1.13-1.18,4.08-.96,1.96.46-1.97.7-4.08.96,1.89.58,4.17-.35,6.08.15,1.65-1.18,12.15-2.6,16.93-3.24-.04-.88-10.57.94-11.1,1.48-.37-.74-5.79-.04-3.61-.83-5.95.91-10.98,1.97-19.28,3.38,3.5.32,7.21-.24,10.98-.95Z"/>
  <path class="cls-2" d="m2227.54,22.96c-.85.23,1.18.39,2.14.58,2.07-.16,4.25-.7,6.28-.66.33-.22-.85-.41.93-.66-1.49-.08-3.03-.06-4.54-.14-2.18.4-.67,1.15-4.81.88Z"/>
  <path class="cls-2" d="m2236.49,23.76c2.36-.12,7.8-.6,4.08-.99-2.98.37-2.18.65-4.08.99Z"/>
  <path class="cls-2" d="m2241.51,22.11c-1.55.65,3.45-.04,4.47.4.82-.51-.06-.51,3.28-.84-2.46-.33-5.2.41-7.75.44Z"/>
  <path class="cls-2" d="m7.61,33.47c-1.05-.41,2.61-.32-.4-.94-1.37.1-2.61-.17-4-.04,6.2.74-3.43,1.92,3.59,1.03,6.6.82,13.35,1.31,19.75,2.64,3.19-.22,4.14.08,5.33.7.71-.09-.88-.43.2-.49,3,.06.75.57,3.58,1.03.88-.52,2.45-.28,6.73-.81-2.71-.52-5.76-.27-8.69-.3-2.02-.94-4.51-.72-6.85-.87-4.59-1.66-12.48-1.85-14.95-2.63-3.63.16,3.56,1.34,5.02,1.44-3.31.24-5.99-1.04-9.31-.75Z"/>
  <path class="cls-2" d="m72.58,45.2c3.98.74,8.12,1.11,12.3,1.27-2.72-.51-.72-.58-2.79-1.02-1.78.92-5.86-.27-9.52-.25Z"/>
  <path class="cls-2" d="m91.75,47.23c2.24.2,3.15-.02,1.02-.54,1.07-.03,2,.31,2.98.53,3.01-.02,2.23-.39,4.18-.51,4.6.44,9.14,1.09,13.94,1.03,5.16,1.77,11.24,1.18,16.74,2.05-.69.96-8.75-.43-9.71.39,8.69.39,13.52,1.74,23.26,1.63,2.12.76,3.48,1.36,7.6.96,1.87.73.61,1.25-2.82,1.15,1.14.46,2.6.18,3.8.48-1.36-.55,3.73-.51.48-1.23,5.14,1.14,10.88.72,16.21,1.27-7.23.01-11.91.09-13.51,0,.99.56,3.85.73,7.08.77,3.23,0,6.84-.1,9.33-.03.14.67,5.53.91,8.33,1.04.71-.12-.88-.41.18-.5.82-.01,1.56.12,2.37.06.2.23-1.13.34.54.68,6.41.52,13.02.51,19.48.89.44.16-.09.25.64.43-6.95-.27-9.35,0-15.79-.21,5.19.98,10.77.91,16.04,1.64,1.98-.31-2.33-.33-2.9-.74,1.4-.21,2.65-.04,3.99-.07,3.43.64.68,1.08,4.26,1.36,1.55-.09.83-.36,2.53-.44-.72-.18-1.56-.07-2.34-.06-1.68-.43-.94-1.38-2.91-.74-4.32-1.03,1.21-.91,4.18-.57-3.99.08,4.27.79,1.17,1.11,1.97.39,4.35-.33,6.35-.01,2.11.65-3.53.55-5.72.45-2.03.18,1.66.81-.37.99,2.71.54,5.76.19,8.44.79-.33.54-3.22.15-5,.63,2.56.93,5.75.19,8.35,1.04,1.55-.34-3.41-.49-4.34-1.11,2.3.2,4.64.28,6.88.67-3.28-.78-1.33-.92-.26-1.43.79-.02,1.54.12,2.35.06,3.36.52-2.09.35,1.26.87,3.64-.55,21.48,1.46,19.78,2.28,2.21-.32,4.77.09,4.9-.45,3.94.64,1.11.84,3.45,1.38-3.81-.38-7.86-.12-11.62-.64,2.13.72,11.09,1.36,16.06,1.44,1.42.35-1.31.42,1.26.85,3.41-.17,6.94-.38,11.62.63.64-.61,3.88-.31,2-1.15,2.11.69,5.28.07,9.16.86-1.95-1.06,6.46.04,6.53-.59,5.47.74-3.49.54.37,1.17,2.5-.36,4.83-.23,7.08.08.2.31-.71.55-1.07.82-8.05-.19-15.57-1.17-21.78-.92,1.63.59,3.7-.04,5.28.73,10.54-.77,19.78,2.1,30.21,1.6,4.68.95,11.62,1.38,17.91,1.78,6.29.41,11.95.66,14.06,1.47,3.06.26,6.14.44,9.19.75,1.94-.87,7.03.11,10.98.09.22.23-1.12.37.56.67.49-.64,6.02-.37,5.45.17,8.75-.3,16.87,1.26,25.52,1.26-2.33-.49,2.04-.48,3.34-.58,1.31.37-3.39.41-2.62.75,7,1.01,14.48.59,21.7.92-.48.94,8.18,1.45,9.92.88,1.38.53,3.02.28,4.46.71,4.27-1.22,19.56,1.44,28.79.63,6.39,1.7,19.61-.05,24.55,1.59-2.26-.24-4.65-.15-6.98-.18,1.54.77,9.53.12,15.45.68,2.42.23,10.99,1.38,11.54.63,1.64-.23,2.96.52,4.47.71,5.58-.24,10.84.38,16.43,0,6.25.71,19.97,1.03,30.01,1.43,129.86,6.06,260.23,8.45,390.76,8.76,16.32,0,32.64.01,48.96.02h24.49s24.49-.17,24.49-.17c16.33-.12,32.65-.24,48.98-.36,16.33-.15,32.66-.21,48.99-.46,32.66-.46,65.33-.92,98-1.38,32.66-.63,65.33-1.25,98-1.88,2.19.28.22.59-1.02.9-19.36-.61-39.38,1.23-58.78.74-1.52.54-2.54.49-5.58.68-.73-.24,1.32-.12,2.43-.4-3.01-.27-6.38.72-9.27.08-2.41.36.32.68-1.84,1.04-8.14-1.15-21.39-.52-32.43.23-8.71-.12-17.37-.43-26.34.36-.99-.12-1.13-.25-.68-.38-13.83.87-32.93.1-42,1.19-2.09-.33-.13-.47-2.94-.5-.83.17.66.34,1.39.5-17.33-.69-31.51,1.1-49.44.11-1.75.84-10.45.09-14.72.11-7.16.03-12.36.91-15.51.24-6.34.57-12.55.63-18.54-.02-3.52.25,1.76.51-1.77.76-.79.3-4.78-.4-2.93-.51-4.33.68-8.28.09-12.52.5-1.54-.17-.76-.34.15-.51-5.61.69-10.88.24-16.41.62-.38-.96-.39-.1-4.49-.51-.11.33-2.04.63-4.04.63-.03-.21-.81-.43-2.14-.65-3.84.95-11.16-.37-18.76.64-1.31-.22-1.31-.43-.6-.64-9.12.28-30.3-.05-32.68.56-4.68.13-9.06-.73-13.99.17-4.16-.62-11.8-.99-13.84-.34-7.25-.13-14.36-.19-21.42-.21-7.06-.04-14.06-.07-21.09-.11-14.07-.06-28.27-.12-43.31-.47-1.51.15-.7.33-1.69.49-2.3-.39-3.15-.26-6.76-.72-8.13.34-17.75.08-27.7-.12-9.95-.19-20.24-.48-29.72.01-1.41-.24-.56-.43-2.12-.68-7.26.01-14.59.24-21.72-.16.23.37,1.76,1.49-5.18,1.69-1.94-.54-.12-.81-4.33-1.1-1.05-.41,4.31-.83,5.53-.28,2.98-.56-4.98-.97-4.56-.34-9.51-1.13-19.72.1-29.22-1.07-2.38.84-8.88.45-13.1-.38-1.65.14-.96.32-.16.51-8.62-.6-17.49-.52-26.11-1.19-.81.19.02.43-.97.61-12.48-.74-30.05-.27-39.2-1.68-.77.11.27.26.64.4-13.83-.6-27.89-.44-41.56-1.67-10.02.24-26.25-.84-38.65-1.35-3.04.19.46.61-2.58.8-1.06.02-2.1.04-3.1-.11,3.35-1.29-9.38-.97-13.58-1.5-1.62.64,3.45.25,4.46.67,1.22.58-3.62.27-4.8.34-4.71-1.81-15.35-1.14-22.77-2.07-3.05.19.44.61-2.61.8-1.06.07-1.99-.23-3.08-.11-.75-.24,1.42-.38,2.51-.55-2.2-.42-4.53-.47-6.99-.13-.18.25,2.45.62-.25.75,1.47.33,3.16-.06,4.55.43-2.74.44-5.09-.38-7.89.19-2.33-.85-5.03-.61-7.56-.85-.49-.65,5.04.36,7.07-.07-4.75-1.06,2.22-.23,4.08-.46-7.21-1.23-6.79-.17-13.74-1.12-1.39.19,1.98.6,1.29.82-.81.08-1.52-.13-2.27-.23-1.28.28-.58.44,1.39.57-4.1.54-7.88.1-11.97.62-2.31-.36-3.64-.44-2.84-.89-3.35-.14-7.05.76-10.26.18-1.72-.33,2.56-.4,3.34-.62-2.45-.46-4.78.09-4.06.46-2.45.28-4.47-.72-6.91-.43-.8-.29,1.93-.42-1.3-.82-3.8.81-15.71.53-15.53-.43-3.38-.07-6.58-.66-10.17-.06-3.91-1.2-10.49-.28-12.11-1.3-4.51,1.37-14.04-1.5-20.99-.69-6.32-.68-12.9-.63-19.18-1.43-2.04-.47,3.95.17.17-.5-10.72.62-20.44-1.56-30.98-1.43,1.2.31,2.54.25,3.73.59.59.2-1.13.28-.18.5-4.6-.36-9.02-1.22-13.64-1.51-.91.27,1.21.32,2.18.5,1.24.53-3.45-.29-4.8.25-.13-.34-.88-.52-2.9-.67-4.46,1.22-12.11-1.14-18.71-.6-2.67-.52-2.54-.85.34-1-1.89-.58-4.11-.26-6.08-.65-.87.15,1.16.5,2.11.78-2.25.39-4.27.12-6.37.09-1.08-.33-.25-.53,1.81-.65-5.56.13-10.82-.66-16.25-.94-.79-.31,1.95-.38-1.27-.85-3.49,1.1-19.66-.87-25.07-.62-1.55-.73-7.75-.97-2.72-1.2-3.27-.35-3.67-.03-4.09.37-3.26-.13-3.67-1.46-8.27-1.18,1.4.53,3.1.2,4.54.55-1.07.06-1.3.17-.9.33-3.86-.28-7.65-.72-11.49-1.03-1.92-.16-3.85-.27-5.8-.33-1.96-.08-3.94-.08-5.96.02.44-.68-.23-.64-2.64-1.48-2.5.19.52.81,1.9,1.3-4.48.7-8.01-1.25-12.43-.71-4.57-.83,2.26-.76-.27-1.42-2.97.23-1.6.81-2.82,1.18-3.11.22-2.88-.72-4.54-.61-.73-.27,1.45-.31,2.55-.44-2.65-.38-6.98-.35-5.63.2-5.13-1.26-5.28-.49-8.89-1.72-5.23.1-5.64-.13-10.81-.84-.79.28,1.91.83-1.92.87l3.64.93c2.81.24,1.57-.55,4.63.36,1.66-.04.98-.27.19-.5,4.76.41,19.75,1.29,16.6,2.32,1.43.41,3.24-.14,4.8-.13,2.48.71.22.96-2.72.94,1.55.28,9.46.82,6.37-.01,3.41.07,6.54.88,10.16.41,1.31.4-3.39.33-2.64.69,2.51.71,10.74.36,8.27,1.28,1.87.45,2.87-.17,1.73-.38,2.84.17,5.65.39,8.36.94.81-.16,0-.43,1-.57,1.88-.1,3.57.33,5.45.23.08.22-.38.4-1,.57,6.88-.08,13.55.41,20.18,1.07,1.67.47-2.41-.11-3.27.3,2.19.51,4.69.1,6.81.83-3.19.08-6.28-.1-9.19-.86-2.68.9-10.56-.86-15.62-.52,10.13.99,19.31,1.3,27.72,2.07,1.97-.34-2.34-.3-2.91-.7,5.18-.37,4.72,1.41,9.9,1.03-1.5-.22-3.05-.33-4.54-.55,2.3-.52,4.06.42,6.36-.1,1.93.34.22.44-1,.57,1.27.13,2.63.01,3.82.38,1.55-.77,14.72.6,20.9,1.24,1.19.69-3.39-.5-4.71-.05,10.63.48,21.2,1.17,31.62,2.07.74.25-1.44.35-2.52.5,3.1.81,5.84.07,5.62-.33,4.65.1-.23.74,4.28,1.25,4.39-.06-2.87-.75-.46-.92,6.43.39,13.12-.03,19.26,1.18,2.62-.76,5.36-.19,9.54-.25,2.73.4.73.55,2.82.92,5.08-.27,9.93.13,14.82.42,1,.54-4.15.1-5.55.08,3.08.69,9.01.64,13.26.34,2.87.45-.82.55,2.03,1-2.27.3-5.51-.21-5.64.33,9.75.56,16.29.62,25.08.3,4.21.57-2.98.63.38,1.16,8.27.29,16.58.49,24.58,1.59,4.35-.64,7.01.17,9.26.41,1.61-.19-.94-.55,1.8-.69,5.75,1.1,20.14.34,20.66,1.55,9.64.28,22.92,1.62,30.19,1.2,4.66.93,9.82.3,14.4,1.42,3.59-.6,6.72.15,10.34-.53,2.74.35.74.54,2.85.87,18.03.65,36.18.96,53.96,2.39.56-.31,2.58-.54-.57-.66,7.4.47,14.81.98,22.26,1.24,7.45.27,14.94.42,22.51.35,3.7-.23,7.03.8,10.66.79.7-.15-.92-.37.15-.51,4.54.38,10.33.85,17.01.45,1.47.29,2.94.59,4.4.88,15.94-.3,31.53.68,47.14,1.32.51-.12.08-.25.89-.37,27.16,1.06,54.67.99,81.88,1.82,4.36-.68,22.97.27,34.84.38,6.43.06,11.57-.37,16.18.33,1.08-.16,2.17-.31,3.26-.47,2.92.97,10.13-.23,15.3.7,13.17-.76,31.72.55,47.34-.07.99.18,1.98.35,2.96.53,20.11-.8,39.65.37,59.78-.51,8.53.83,17.67-.39,26.21.42,5.38-.73,10.26.21,15.6-.42,14.28.51,28.82.19,43.36-.21,31.91.18,64.16-.79,96.05-.83,1.08-.17,2.16-.35,3.24-.52,1.4-.14,1.36.21.66.38,17.06-.56,29.39-.59,46.66-1.2.98.17,1.96.33,2.94.5,3.23-.1,1.4-.94,6.32-.53.75.24-1.32.12-2.42.39,2.08.14,5.47,0,5.51-.4,125.78-1.45,247.87-6.39,373.07-10.15.8-.14,1.61-.28,2.41-.42,16.87.02,34.18-1.62,50.96-1.25,3.01-.23,5.69-1.12,6.22-.33,2.41-.41,9.43-.79,13.95-.39,1.06-.18,2.14-.36,3.21-.54,5.9-.05,11.77.05,17.83-.56,28.37.11,57.43-1.9,85.65-1,1.08-.18,2.14-.35,3.23-.53,4.64.55,13.02.28,15.49-.33,1.42.21.56.42,2.14.63,2.17-.98,4.72-.41,6.97-.15,7.5-.87,16.49-.76,26.42-.86,1.3.21,1.31.42.6.64,2.34.1,2.76-.93,7.05-.41.76-.13-.28-.25-.66-.38,2.38-.25,4.56.21,7.05-.41,1.55.16.75.34-.15.51,2.72-.36,7.89-.79,12.56-.8,2.05.63-2.64.36-4.84.78,9.45-.69,18.81-1.05,28.21-1.6,1.24.21,2.45.42,3.69.63-.84.58,2.22-.33-1.4-.51,4.36-.68,8.25-.55,14.17-1.05.97.54,6.52.28,2.88.76,2.6.18,2.68-.77,7.72-.02,3.67-.55-1.85-.39-2.94-.5,5.6-.71,10.83-.13,16.45-.93.72.17-.86.34-1.68.51,1.5.14,3.17-.3,4.56.24-1.32-.7,2.76-.3,5.65-.91,13.31.86,28.67-1.94,40.28-.61,2.65-1.17,10.92-1.03,15.82-1.32-.28.81-6.73.28-9.49.8,1.22.24,2.54.11,3.75.37-4.48.38-9.08,1.16-13.52,1.43.56-1.33-11.57.09-13.96.29,8.88.56,23.57,0,31.98-1.23.75.21-1.4.43-2.49.65,4.81-.21,14.74-.32,15.07-1.46,2.99-.27,1.88.48,3.69.62,8.94-.9,14.55-.96,24.47-2.01,11.86-.1,23.74-.26,35.98-1.72,6.91.09,18.15-.65,22.79-1.55,15.01.37,41.18-3.35,60.64-1.86-4.7-1.54,11.65-1.11,10.71-2.54,4.1.05,8.63-1.51,12.51-.67,16.65-1.82,32.93-2.31,48.87-1.46,2.14-.46,4.48-.92,3.43-1.33,2.61-.2,5.13-.07,7.58.35,2.49-.66,4.73-.45,7.06-.55,1.12-.73,3.28-.7,4.97-1.4-1.46-.3-3.14.3-4.64.12,10.31-1.21,27.07-1.73,39.39-.84,1.59-1,6.05-1.3,11.08-1.32,9.81-2.29,22.46-3.83,34.98-5.01,1.48.21,2.96.41,4.45.62-1.25-.77,6.91-.9,10.32-1.5.3.16.63.32-.13.51,11.17-.83,21.63-1.64,30.59-3.23,5.86-.44,12.73-.97,19.3-1.63,6.57-.65,12.86-1.45,17.56-2.53,7.94-.38,22.65-2.85,29.03-3.85,10.78-1.7,20.41-3.04,28.48-5.1-2.94.22-2.96-.21-4.46-.44,2.15-.57,4.14-.41,6.28-.97-3.78.05-5.44.66-7.64.3-3.81,1.22-10.32.32-11.69,1.36-1.85.37-3.48-.29-5.24-.34-4.94.51-9.85.9-14.72,1.23,4.51-.92,6.58-1.08,12.73-2.52-9.17.76-19.99,1.6-31.18,2.63-5.59.53-11.28,1.07-16.9,1.6-5.62.55-11.17,1.17-16.48,1.87-2.1.26-4.11.18-6.1.02-.21.22.12.42.61.61-2.32.12-4.68.44-7.03.7-3.28-1-12.31,1.35-16.6,2.4-2.19-.33,1.17-.9,3.4-1.43-2.17.26-5.43.07-5.24-.4,3.87-.75,4.55-.3,7.14-1.21-1.71-.3-3.8,1-5.42.37-2.88.38-1.05.57-3.27.9-1.05.09-2.08.19-3.1.1.07-.43,3.45-.97,3.41-1.39.79-.1,1.54-.07,2.34-.23-1.85.87,4.79-.06,7.7-.35,1.44.15.6.4,2.17.54,6.82-.74,8.2-2.12,14.36-2.68.57.44-5.31,1.17-7.27,1.73,2.79-.12,8.67-.69,7.14-1.21,7.36.07,15.08-1.41,22.68-2.42-4.52-.18-9.4,1.07-14.1,1.65,2.87-1.37,12.19-2.22,17.18-1.79,6.08-.94,12.13-2,17.92-1.87,9.32-1.46,18.5-2.34,27.68-3.19,4.59-.43,9.17-.87,13.77-1.31,4.59-.51,9.19-1.12,13.82-1.84-3.97-.31-8.16.47-12.07-.14-4.41.56-8.77.78-13,.38-1.49.26-.67.38-1.65.61-3.14-.66-6.66.37-9.9.19-1.51-.21.41-.62,2.49-1.04-3.98-.27-8.23.61-12.3.71-3.08-.12,1.62-.69-.55-.86-5.96,0-9.3,1.17-16.35,1.84-1.91-.58,6.08-1.62,8.83-2.17-1.28.06-2.52,0-3.76-.17-.75.17.29.24.7.34-3.12.52-4.83.08-6.27.87-1.42-.13-.58-.39-2.15-.51-5.23.77-10.34.84-15.45.98-1.93.43-2.02.77-.23,1.03-1.62.41-3.19.61-4.74.73-1.55-.44-2.08-.93-2.71-1.41,6.22-.46,15.59-1.93,17.46-3.08,9.55-.82,19.12-1.85,28.5-2-2.31-.88,4.75-.98,8.59-1.14,1.05.48-4.02.22-5.46.7,3.96.31,8.31-1.07,12.45-1.49,2.87.17-1.85.74,2.16.51,1-.96,11.56-1.56,17.06-1.83,4.62-1.16,9.92-1.21,16.27-2.08.64-.92-5.52.24-7.6.3,5.31-.93,18.34-2.92,27.75-2.79,1.62-.39,4.21-.73,7.22-1.05,3.01-.31,6.43-.63,9.69-1.04,6.54-.78,12.49-1.65,13.4-2.86,5.61-.23,7.76-1.58,12.32-1.62.07.43-3.03.59-2.46,1.12,12.29-2.06,24.37-4.53,25.2-6.36-2.86-.12-7.97-.04-6.6-.81-6.54.03-16.88,1.21-18.71-.24-3.07,1-8.68,1.25-9.4,2.12,1,.04,2.06-.31,3.1-.53,1.47.35-.35.37-2.41.86-1.94-.31-3.95-.25-6,.03-2.19-.1-1.33-.48.93-.98-1.96.1-3.8.39-3.88.73-2.36-.24-6.24.11-10.46.66-4.23.49-8.81,1.17-12.55,1.7-8.43-.51-17.42,1.84-26.31,3.45-.49-.05-.98-.1-1.49-.15,3.65-1.65,12.19-2.38,16.58-3.63-1.46-.25-3.06.18-4.49-.18-6.59,1.23-11.89,1.87-17.15,2.45-2.63.29-5.25.58-8.01.89-2.76.31-5.68.62-8.89,1.06-.45-.1.05-.26-.69-.34,2.33-.23,5.25-.61,7.89-1.04,2.64-.45,5-.97,6.22-1.39-1.96-.24-4.09.39-6.06.18.88.48-1.19.74-3.91.61.64.3.56.65-.22,1.04-4.45-.02-14.49,1.09-12.55,2-1.9.53-.75-.75-3.74-.17-.45-.23,3.06-.45,1.7-.86-3.09.11-5.89,1.27-4.88,1.56-2.08.31-1.64-.57-3.64-.68-4.12.62-1.53.85-4.08,1.38-2.03.42-2.59-.24-1.42-.43-3.19-.05-2.51.72-3.23.95-.94,0-4.05-.13-4.43-.51,1.9-.59,3.65-.55,5.52-.96-4.51-.17-6.62.88-6.37,1.39-5.43.46-10.34.83-14.09,2.08-3.93-.16.54-.7-1.3-.96,3.13-.34,6.21-.68,9.31-1.02-2.87-.34-2.74-.86.36-1.55-1.93-.15-3.81.27-3.91.61-.33-.6-3.64.19-4.41-.52-4.31.9-8.21,1.07-13.99,1.39-1.06-.32,4.17-.86,5.4-.37.81-.12.45-.19.07-.26.52-.11,1.06-.22,1.58-.32-2.96-.32-6.14.3-9.26.67-1.44-.45.31-1.04-1.16-1.48-1.68.62-1.75.38-4.79.98-2.82-.17-1.87-.51-3.63-.73-1.97.3-1.59.5-2.44.75-2.12-.16-.15-.5-2.88-.64-4.67.52-9.26.66-13.85.88-1.95-.47,1.86-.41,4.03-1.07-2.21-.24-4.71.66-6.87.18,0,.21-1.75.5-.91.68-5.56.05-11.24.45-16.93.86-5.68.41-11.37.84-16.96.87-.82.2.66.32,1.4.46-1.87.4-3.74.76-5.54.83-2.7-1.92-15.11,1.11-21.56.98,2.2-1.9,10.4-1.71,16.67-2.73-3.25-.28-7.29.78-8.34-.1-1.6.31-3.2.62-4.8.93-1.87-.15-1.39-.38-2.14-.57,2.05-.05,4.24-.71,6.21-.46-1.05-.53,1.97-.4,2.52-.98-3.32-.88-7.49,1.56-10.81.62-3.56.86-7.28,1.66-10.53,2.46-3.02-.27-1.34-.65.26-1.03-2.4-.58-5.07-.03-7.62-.07.47.33-.31.69-3.34,1.1,1.5.11,3.15-.37,4.55.14-2.65.38-5.21.44-7.69.19l-7.21,1.32c-1.11-.72,1.55-.65-3.68-.55-3.6-.25,1.85-.72-1.26-.99-1.28,1.27-5.49,1.01-10.49,2.17-4.57-.08-9.19.04-13.71-.18-3.73,1.31-8.25,1.62-13.65,2.41-3.43-.28,2.71-.73,1.82-1.05-7.05.25-14.35,2.13-17.68,3.1,7.19.15,9.59-1.6,14.32-2.03,1.31.19,1.32.4.6.63,1.97.2,5.12-.66,3.29-.82,6.35.91,19.24-2.51,27.88-1.37-5.53,1.63-17.33,2.11-25,2.09-5.1,1.87-16.01,1.97-25.91,2.35,2.89-.84,4.52-1.44,5.23-2.38-2.21.58-4.18.37-6.37.87-6.7-1.24-9.61.95-16.05-.11-7.29.76-4.92.55-11.77,1.07,2.06.19-.49.43.6.63-2.12.22-4.14.09-6.31.58-3.44-.43.93-.79,3.28-.8-.65-.57-9.59.3-9.44.87-3.07,0-6.29.55-9.18-.16-4.34,0-9.06,1.38-13.33,1.04-2.72-.69,2.03-1.47,4.45-2.22-5.6.18-8.12,1.27-15.69,1.19-2.67-.46-1.16-.59-4.48-.46-2.63.51,4.76.11,2.14.61,2.29.01,4.58.06,6.95-.2,1.03.64.36.58,4.49.46.73.16-.85.35-1.69.53-2.13.26-3.92-.63-6.02-.44-.02.21-1.78.44-.94.65-2.64.24-5.14.01-7.7.08-1.09-.32-.31-.47,1.68-.53,1.51-.15.63.2,2.19.36.46-.39,1.66-.78-.45-1.14-10.83,2.2-21.12,2.21-31.67,3.31-1.12-.16-2.23-.33-1.41-.5-.9.42-8.99,1.23-14.22,1.37-.59-.65,7.82-1.08,7.32-1.45,2.07.54,4.05.21.82-.13-8.77.71-16.68,1.1-23.41,1.17-2.42-.84,8.18-.65,8.13-1.59-3,.07-3.94-.19-5.5.42-10.06-.53-28.54,1.58-39.05,1.96-2.23-.33,6.16-.7,1.84-1.03-1.5.73-5.4.97-8.82,1.18,2.28.12,4.54.31,6.92.1.44.12-.08.25.65.38-4.76.49-9.13-.4-14.03.56-1.42-.21-.56-.42-2.12-.63-3.79.62-7.26.24-10.95.55-1.29-.21-1.31-.42-.59-.63-1.74-.19-3.7.41-5.36-.11-1.64.18-.96.34-.14.51-14.28-.02-23.89.29-37.99.73-1.11-.26-.29-.51,1.76-.77-2.3-.05-4.7.26-6.99.14-3.78.35,1.5.68-1.82,1.02-3.46-.5-7.12-.26-10.86.28-2.12-.25-.15-.51-2.89-.76-1.42.3.41.59-1.02.89-4.18-.7-3.55.09-9.33.28-2.1-.25-.12-.51-2.87-.76-.67.21-.72.43.59.64-4.92.4-15.35-.38-15.08-1.24-7.35.53,5.74.72,1.12,1.53-2.65,0-1.8-.35-5.22-.62-3.68.52-7.91.06-9.55,1.04-3.39.03-7.25.14-8.32-.62-1.35.22-2.69.43-4.03.65,2.72.67,1.09-.55,3.82.12-2.23.96-13.51.36-20.36,1.07,1.18-.52.55-.94,4.18-1.16-5.25-.67-6.41,1.02-11.9,1.19-3.38-.79-7.18-.04-10.88.3-4.17-.69-8.65-.32-13.09-.08-1.02-.55,4.08-.23,5.57-.66-1.48-.38,2.27-.77,1.11-1.15-4.35.79-10.49.97-14.4,1.83-1.21-.23-3.12,0-6.1-.23-1.58-.73,9.27-.21,3.37-1.03,2.45-.53,4.59.12,7.06-.41-2.2-.59-8.83.51-8.39-.35-2.58.47-5.33.3-9.49.8.34-1.04-4.45.02-8.32-.61-4.85.78-9.42.62-14.18,1.09-.16.52,3.69.87,6.04.47-.55.89-7.29.45-10.15.44-.66-.39,1.47-.82,2.57-.91-.49-.41-2.72-.4-2.81-1-.41,1.15-4.58.35-8.82,1.2,1.61.66,3.64-.13,5.3.35-2.59.08-5.3.57-7.72.05-.73-.24,1.33-.12,2.42-.4-1.08-.24-3.28-.09-2.2-.37-2.82-.36-1.16.84-3.9.15.74.42,2.19.84-.36,1.28-3.72.03-.16-.43-2.88-.75-2.15.31-1.4.6-1.02.9-1.3.05-2.54-.15-3.9.15-3.96-.53,2.54-1.12-.32-1.66-.9.35-2.3.69-1.83,1.03-2.73.59-4.99-.52-7.8.3-2.83-.28-1.86-.58-3.6-.87-3.51.55-6.76.25-10.09.19-2.02.9-7.72.71-11.76.73-2.08-.24,4.09-.55.21-.77-3.56.84-7.37.49-12.5.63-3.24.33,1.33.58-1.02.9-4.52.2-.71-.75-4.36-.98-2.05.06-2.88.2-3.23.54-7.33-1.33-15.68.95-23.19.22-2.77.89-4.45.78-9.61,1.37-1.4.04-2.29-.47-5.31-.33-.75-.63,4.66-.4,6.4-.83-4.72-.34-8.35.22-11.77.77-3.82-.16-2.01-.49-4.36-.96-3.1.23-4.84-.1-6.33.6-.97-.15-1.97-.31-2.95-.46,1.25.67-7,1.09-10.08.27-2.55.98-4.69.62-8.61.51-3.21.51.32.14,1.42.49-1.9.37-3.61.08-5.45.21-2.91-.56-.83-.6.28-1.02-3.35.05-6.67-.04-9.81-.75.81-.18,1.59-.22,2.35-.16-.43-.48-7.64-.1-10.75-.1,8.07.23,6.52,1.09,14.31,1.19-7.42,1.22-8.21-.62-13.78-.31.12.55,5.84,1.02,4.97,1.58-2.02-.45-7.32-.27-9-.89-2.22.58-2.36,1.14-4.31,1.72,1-.93-2.88-.81-5.84-1.19-1.47-.32,3.38-.73.27-1.02-1.4.44-2.13.45-1.81,1.05-2.04.07-4.84-.36-3.16.31-2.29.03-4.52-.28-6.76-.53-.05-.39,7.05-.17,5.64-.98-4.19.53-22.9,1.99-19.32.43-2.3,0-4.78.65-6.97.24-3.44,1.28-11.52.47-17.4,1.8-1.26-.82-6.08-.19-4.34-.95-2.6-.15-2.08.7-5.63.98-5.9.04-11.73-.21-17.85.66-.55-.7-5.65-.4-6.17.1-2.13-.64-4.57-.16-6.77-.53.65.4,1.82.39,2.81.98-3.01.13-6.37-.31-7.52-.65-4.05-.05-2.21.79-7.7.12-.35.22.85.41-.95.65,3.4-.23,6.67-.09,9.92.23-5.64.08-11.29.1-16.96.27-.45-.12.07-.25-.67-.37,2.65-.29,7.42.15,7.85-.63-3.99-.33-7.66.77-13.07.07-1.09.21-2.17.41-3.16.29-.68.22-.72.43.6.63-3.47.49-6.69.06-10.13.5-2.75-.22-.78-.5-2.89-.73-3.03.37,1.55.61-2.49.67-2.86-.29,1.89-.66-2.13-.61-2.2.24.26.42-.95.65-11.75-1.35-26.44.39-36.07-.2-1.24-.24,2.27-.54,1.74-.79-4.3-.19-8.98,1.03-13.07.03-.66.22-.71.43.59.63-1.67.48-3.12.19-4.76.56-1.95-.19-.25-.42.95-.65-2.22-.31-4.65.12-6.92-.04-.82.18.66.33,1.4.49-1.66.46-3.08.04-4.7.31-.21-.21,1.1-.44-.59-.63-1.06.18-2.14.36-3.22.55-2.1-.23-.13-.51-2.88-.73-7.51.31-15.03.61-22.46.66.73.12,1.46.24,2.19.36-2.04.01-4.27.62-6.23.32-1.95-.2-.26-.42.94-.65-4.48-.26-12.69.49-14.83.76-1.12-.52-2.93-.62-6.09-.21,3.87.46.34.5-1.76.78,7.1-.32,10,.38,17.7-.02.86-.25-.72-.09-1.46-.24,1.7-.58,2.99.29,4.71-.29,2.32.61,2.4.44,5.88.96-8.91-.43-21.33.77-27.69-.02-.51.13-.07.26-.88.39-3.02.29.77-.49-2.13-.62-4.92,1.09-9.38.51-13.97.37-1.42.72-4.65.7-7.84.58,1.2-.52,4.03-1.05,1.97-1.55,2.31-.18,6.18-.02,6.32-.56-2.98.12-3.06,0-4.49-.47-1.36.59-3.39.48-4.11.92-2.63.22-5.07-.24-7.79.32-2.92-.9-9.88-.32-15.41.13-.03-.77-2.77-.68-6.92-.07-.54-.21-.47-.42.96-.65-5.04-.31-10.43.61-15.5.38-1.44.27,1.87.49-.21.76-1.64.37-2.9-.63-4.62.04-1.31-.2-1.31-.42-.59-.63-2.45-.09.03.7-3.97.42-1.9-.24-2.57-.49-1.33-.75-3.96.42-10.87-.21-12.48.59-2.11-.25-.11-.51-2.88-.75-.17.79-4.05.14-3.88.14-5.45.14-7.38,1.16-13.21.43-1.16.76-7.5.43-10.94.55-.22-.21,1.1-.43-.59-.64-2.55.85-6.15.06-10.28.93-1.31.54,3.84.66,5.29.36,1.37.1-3.65.61-4.76.53-1.57.62,3.45.13,4.55.23.75.21-1.4.43-2.49.65-1.25.08-4.24-.77-7.7.03-1.94-.29-3.73-.58-2.07-.88-2.71-.44-5.72.25-8.37-.35-.78.34-.03.78-3.3.78,1.9-.96,7.84-1.66,13.71-2.22-2.54-.07-5.02-.34-7.56-.48-1.19.26-1.61.78-3.96.4-.82.21.01.42-.95.64-3.51.36-1.91-.29-5.21-.62.42,1.07-13.24,1.29-14.69.19-.12.63-3.27.01-5.57.66,2.43.45,5.19-.22,7.63.23-.17.48-6.65.06-9.24.03-.32.26-1.2.51-3.31.78-1.91.3-1.72-.39.15-.51-2.66-.18-2.99.68-1.03.9,1.85-.2,3.56.12,5.5-.4.69.25.68.51,1.34.76-3.7.39-7.09-.38-10.79.04-.72-.49,5.62-1.46.43-1.53.8.69-1.15.36-4.04.65-.31-.75,2.68-.35-2.87-.75-.4.5-.72.67-4.11.91-1.1-.97-5.83.34-9.1-.52,9.34-.12,16.75-.99,27.09-.45-3.68-.84,7.15-.43,5.79-1.42-1.21-.24-2.54-.11-3.73-.37-1.6.84-7.98.27-9.19-.22,2.09.72-3.73.69-1.16,1.4-2.05-.03-4.23.4-6.18.03-1.48-.4,6.19.01.96-.64,1.7-.58,3,.3,4.7-.27-1.42-.21-.55-.42-2.13-.63-4.65.87-5.83.22-6.84-.36-.3,1.07-9.99.37-14.82.62-1.71.48.19.34,2.13.64-5.3.86-13.67.07-16.44.88-3.08-.3.56-.59-.52-.89,4.12-.03,8.29-.21,12.33.01,1.49-.34,1.58-.68.29-1.02-1.1.26-2.1.14-3.07,0-.4.17-.8.34-.16.51-4.16-.77-15.86.01-18.71.75,2.16-1.29-5.48-.62-7.27-1.54-1.36.22-2.64.23-3.9.12-1.58.69,3.46.13,4.49.51,1.23.53-3.3.88-7.41,1.65-3.42-.7,3.41-.73,3.45-1.27-3.77-.49-3.05.06-7.05.38,1.25.3.34.6.52.89-1.86.19-3.48-.4-5.44.12,3.2.52,6.84-.55,9.91.39,4-.53,8-.98,11.83-.88,1.31.31-3.55.21-4.7.25-1.54.46,3.93.46,3.09,0,.6,2.5-22.11.42-34.3,1.24,1.1.17,2.21.34,1.39.51,1.69.38,3.73-.39,5.37.13.35.36-5.84.83-7.79.24,1.49.6-5.23,1.41-7.92.76-.9-.14,4.71-.55,6.23-.25-.92-.75,1.8-.74,2.72-1.4-3.31-.29-2.25-.48-5.96-.77,5.57-.28,8.71.23,15.65-.75-3.16-.6.39-.6-4.34-1.02.04.43,2.85.85-1.89,1.27-5.15.01-10.22-.26-15.42-.01,1.9.25,2.57.51,1.32.76,2.27.13,4.58.13,6.89.13-.23.36-3.25.59-4.85.76-1.53-.17-.75-.34.15-.51-4.36-.34-1.28.73-6.31.5-.22-.38,1.76-.76,1.11-1.15-5.63.95-15.89.03-21.89.99-1.05-.3.98-.59-2.05-.91-2.91.28-5.64-.08-8.68.58,1.97.27,2.69.52,2.88.78-3.69.28-7.23.02-10.95.44-1.66-.52,2.89-1.46,6.38-.72-1.67-.39,1.33-.76-.44-1.15-3.35.88-6.81.51-13.43,1.06,1.65.53,3.68-.22,5.36.16-.28.62-4.56.08-7.12.59-1.43-.22-.55-.43-2.13-.65-2,1.37-9.02-.09-13.29.55-1.99-.95,6.06-.64,6.53-1.23-.74-.12-1.56.05-2.34.11-3.38-.28,2.04-.5-1.32-.77-2.82.37-6.9-.07-5.58.6-2.74.55-5.07-.29-7.71-.05-.54-.34.95-.81,3.22-.49-.41-.88-10.07.66-10.64-.58-1.61.24-3.23.49-4.84.73,1.88.22,1.39.43,2.13.65-3.05.29-3.02-.19-4.48-.54-4.96.99-9.39,0-17.62-.49-4.69.68-14.54-.38-21.65.09-.25.6,3.23.19,5.28.44-1.25.67-8.87.42-12.48.36-1.17-.65,4.85.06,4.03-.59-2.34-.32-4.19-.53-4.39-.82-1.91.24-5.46.97-8.16,1.43-3.55.15-2.55-.7-5.13-.96-1.84-.11-7.82.6-6.89-.21-6.12.62-11.97.36-17.84.16-3.46-.43,3.03-.73-.43-1.15-4.53.32,1.12.78-2.65,1.11-3.54.34-3.6-.69-5.87-1.09-2.12.23-4.07-.16-6.16-.08.67-.33.06-.68-2.76-1.05-.15.19-1.09.53-2.43.35-1.9.34,2.37.07,2.93.54-2.19.43-4.11-.01-6.16-.08-1.71.32,2.8.5,3.74.43.19.3-.7.59-1.04.88-2.97,0-2.94-.47-4.7.2-3.22-.62.92-.44,1.03-.88-3.11-.38-2.91.26-4.04.59-3.66.16-7.17-.19-10.8-.13-.14-.39,2.46-.73,2.66-1.11-3.38-.23-6.36-1.28-10.56-.89-2.86-.82-3.46-1.21-10.4-1.44,1.97.3,4.6.37,4.4.85-2.43.32-4.68.09-6.98,0-1.59.23.96.53-1.76.73,2.98,0,8.48.8,9.24.18.37.3,1.11.61-1.05.87-2.67.02-1.67-.75-5.42.02-3.37-.32,2.05-.47-1.3-.79.42.78-3.79.67-7.06.25-2.03.45.86.62,2.93.56-1.36.22-2.6.06-3.97.31-.81-.31-5.28-.7-3.58-.96-1.35-.09-6.77.58-5.35-.23-2.47-.28-4.17,1.05-7.93.61-.74-.23,1.42-.4,2.5-.59-3.83-.15-10.7-.99-12.32-.24-1.15.09-6.55-.24-2.92-.56-6.78-.03-15.79.62-18.46,2.07-1.81,0-3.56-.16-5.43.02-2.94-.48,2.94-.79-1.14-1.3,3.77-.43,3.69-.09,6.14.12,3.72-.35,4.56-.76,1.94-1.24-.77.11.28.26.67.4-2.4.19-4.8.45-6.98,0-1.69-.39,2.4,0,3.24-.45-1.89-.57-4.23.27-6.08-.37-1.69,1.21-9.98.18-15.32-.55-2.62.41-4.91,1.24.33,1.41-1.09-.68,2.03-.39,4.71-.16.74.24-1.35.21-2.34.08,1.13.6,9.17.33,12.97.63-12.62.65-31.37-.33-46.44-.25-.72-.19.86-.32,1.69-.46-1.99-.24-4.01-.39-6.23.09-1.03-.84-3.09-.19-6.01-.67-2.2-.35,5.22-.46,1.04-.86-3.01.76-4.48.23-10.05-.14-2.49.58-5.5.93-9.31,0-2.75.51-5.18.04-7.94.55-7.71-1.96-22.72-1.03-36.55-2.25.2.57-3.45.94-4.71.13-3.2.21-2.44.53-2.6.82-1.04.03-2.09.05-3.06-.1.47-.37-.35-.77,2.67-1.06-4.31-.64-1.41,1.02-6.24.04-1.46.86-2.72.49-7.13.39-1.47-.35.47-.58,2.58-.8-7.54.43-18.65-.55-24.37.8-3.72.16-3.61-.26-6.08-.47-2.01-.45,2.18-.69-.41-1.16-2.89.24-2.39.6-1.85.96-3.74-.27-2.86.17-6.33.29-2.08-.75,3.09-1.44,6.66-1.3-1.54-.25-.73-.41.07-.25-5.05-.9-12.2-1.95-20.74-.85-2.7-.43,3.76-.55.33-1.01-2.91.62-10.29-.45-15.39-.54-1.55.16-.81.4-2.52.55-.2-.22,1.11-.39-.55-.66-2.83-.06-.98.14-3.25.4-.59-.19,1.12-.3.16-.51-3.16-.64-6.66-.31-6.32.29-.7-.2-1.47-.25-2.27-.21-.71-.19.87-.31,1.7-.45-7.17-.27-18.11-1.74-23.05-.98-6.78-1-5.22,0-9.14-.66-4.22.82-6.61.55-12,.87,1.69.41,3.52.35,5.27.61-2.46.34-4.55-.42-6.96-.18-.73-.2.85-.3,1.69-.44-4.85-.27-9.55-1-14.4-1.27-.72-.2.87-.3,1.72-.44-2.29-.15-4.54-.44-6.98-.18-2.86,1.27-17.68-1.31-25.5-.74,8.9.6,17.85,1.1,26.71,1.82-3.18.19-6.17-.22-9.23-.41-1.36.54,3.96.32,5.25.61-1.62.18-3.24.37-4.87.55-1.4-.27-.53-.45-2.08-.73-6.54.04-6.57,1.23-14.18.39-.54-.47,5.24-.31,7.21-.57-.15-.31-1.93-.68-.47-.91-1.59.12-5.89,1.5-11.92.62-1.08-.3-.25-.52,1.79-.69-3.06-.58-6.34.83-11.01.23-3.09-.51,2.36-.55-1.2-1.09-.83.04-.48.14-.08.25.06.35-4.13-.16-3.34.58-1.32-.18-6.43-.63-5.5.08-1.75-.2-3.67.01-5.33-.42-.03-.47,5.46-.64,4.31-1.17-1.94.05-4.72.1-7.13.25-2.08-.37-.1-.52-2.82-.92-4.66-.08-9.21-.51-13.83-.75-1.49-.38,2.98,0,4.06-.42-5.8-.7-7.59.96-13.18-.33-1.58.03-3.35.63-4.79.25-1.91.26,2.36.17,2.89.67-.81.08-1.61.17-2.43.25-4.44-.73-9.22-.48-13.64-1.25.01-.65,6.35-.39,8.48.33,2.16-.2,4.28-.3,6.33-.17-2.52-.09-8.23-1.34-12.3-.67-3-.55,1.09-.71-1.9-1.25-3.22.74-12.31.17-19.5-.17-1.63-.55,2.42-.02,3.24-.33-3.27-.17-1.65-.52-4.34-1-4.23.16-8.19-.49-12.45-.28-5.41-1.14-5.6-.2-14.16.09,3.36.15,6.77.06,10.01.53,1.65-.06.97-.28.19-.5,2.11-.05,4.16.08,6.13.4,1.73.33-2.5.18-3.16.05.92.46,8.14,2.12,12.02,1.54,2.26.88,10.85,1.29,16,1.25,1.7.46.7.72,3.79.33,7.65,1.25,15.52,1.87,23.59,1.92.01.88,8.35.64,5.79,1.34,1.32-.19,3.89-.02,7.06,0-1.21-.31-2.54-.25-3.72-.58,1.58-.04,3.11.04,4.68,0,.54.24.46.45-.97.59,1.9.51,4.05.33,5.96.84,1.52-.09.71-.3,1.71-.42,1.67.46,3.35.86,5.33.42,1.21.26,2.38.68,3.72.58,2.05.37-4.1.29-.26.75,3.3-.83,16.45.38,19.18,1.14,2.7.42,1.04-.35,3.25-.37.78-.04,1.52.07,2.34-.03,2.81.42.74.63,3.55,1.05,5.26-.58,14.98.55,22.26,1.11,1.96-.4,3.69-.17,5.6-.39-3.71-.73-3.17.32-6.97-.18,1.98-.32,1.42-.23-.46-.91,5.19-.6,9.46.03,10.68.73-2.2.37-3.91-.76-6.16-.27,3.43.16,4.84.96,1.93,1.23,4.87.21,9.63.79,14.48,1.02-1.6.63-.84.38,2.83.89-2.61.05-5.13-.26-7.53-.84-1.44.19,1.84.59-.25.75,2.88-.06,5.58.44,8.42.5,2-.25-.83-.72-2.73-1.14,4.4.01,8.62.59,13.19.2.69-.31-.78-.71.34-1,4.64.01-.12.66,3.54,1.05.74.28-1.31.05-2.42.28,4.25,1.06,14.58.95,19.59,2.14,6.42-.52,12.4.19,18.54.43,1.92.72-4.38.41-5.03,1.1,4.55.67,6.04-.64,6.82.62,1.52-.37,1.66-.79.41-1.26,5.48-.12,10.83.2,16.12.69,1.93-.92,7.14-.37,10.95-.13.71.2-.87.31-1.7.45-1.33.09-2.51-.3-3.73-.51-1.07.09-1.29.21-.9.35-.53.07-1.09.13-1.62.2,2.72.42,5.78-.23,8.34.67-1.91.28-3.6-.1-5.42-.06-1.15.65,4.44.48,6,.72-5.33.89,5.89.4,9.8.98-.19-.41.98-1.1,4.2-1-2.28.57,1.81.71,1.87,1.47.83-.14,1.61-.14,2.35-.04-1.24-.75,3.92-.48,5.03-1.1,2.06.17,8.39,1.12,13.04.58,2.67.44.02.68-.33,1.01,4.23.47,8.26.65,10.54,1.13,1.07-.13,2.15-.26,3.24-.4l-2.92-.61c-3.06.61-5.62-.31-8.43-.42,3.76-.42,7.11.5,10.86.13-.53,1.56,8.21.89,14.19,1.79-2.24-.23-4.67.07-6.89-.31-.4.63,5.99.56,8.35.61.79-.32.61-.66,1.86-.97,4.22-.08,1.93.72,3.57.99,1.12-.23,2.09-.09,3.08.08.33-.79,3.97-.69,7.7.21-2.11-.9,1.23-.25,4.94-.89,4.21.82-5.67.47-.39,1.27,1.57-.9,4.42-.57,6.56-1.1,3.63.7-4.56.48-3.41.93,3.75.11,4.55.12,7.14-.45,3.35.63-2.64.23-1.78.72,6.5,1.07,8.84.07,15.57-.09,1.73.34.76.61,3.57.99,3.53-.5,6.68.15,10.13-.11.9.36-.79.66-.32,1.01-1.11.21-2.08.04-3.16.17-2.53-.32.27-.5.23-.76-4.67,0-6.22.42-11.68.07,3.28.29,6.48.83,9.91.64,2.52.43-4.21-.07-1.71.47-3.51-.34-7.15-.31-10.7-.54-.71.15.9.36-.15.51-3.01.19-.79-.51-3.66-.73-1.35.19-2.64.17-3.89.02-.72,1.57-7.42-.56-11.75.32-2.69-.41.86-.75-2.85-.84-2.35.45.45,1.03-2.01,1.48,1.94.43,4.13.02,6.09.41.82-.15-.65-.36-1.39-.55,2.71-.37,5.17.04,7.71.21.35.47-2.5.15-3.32.68-3.11,0-6.12-.28-9.32,0-2.7-.41.86-.75-2.84-.84-5.45,1.71-21.91-.02-31.79-.24-.42-.35,3.23-.57,1.86-.96,9.18.47,18.28,1.13,27.57,1.26,1.54-.42-3.34-.55-4.62-.12-2.25-.5-5.43-.46-2.04-.95-2.6.03-5.2.09-7.78.04-.56-.35,2.36-.62-1.22-1.05-2.62.66-3.36.4-7.06.19-2.85-.37.82-.57-2.02-.95-5.35-.39-12.31-.15-15.65.23.11-.21-1.53-.48-.57-.66,2.28-.27.06.65,3.08.11-4.46-.65-9.23-.37-13.7-.99-1.9.23-3.79.46-5.68.7-1.45-.39-1.45-.73-4.29-1.17-3.38.75,1.77.9,2.68,1.37-2.98.35-5.37-1.06-8.44-.42-3.47-.63,3.37-.9-1.04-1.57-.77.1.25.26.64.4-6.04.24-11.82-.37-17.67-.74-3.28.44,1.53,1.16,4.3,1.17-2.91.14-6.13,1.24-8.77.58-1.24-.52,3.23-.04,2.52-.55-1.35-.62-3.17.21-4.54-.41-1.88.43.11.67-4.14.75-1.73-.32-1.65-.57.25-.76-4.1-.66-4.08.88-7.88.23-1.05-.42,4.42-.61,1.15-1.11-3.01.19-2.21.52-4.14.75-1.06.02-2.09.04-3.08-.11-.04-.41,4.25-.27,3.4-.9-3.92-.08-2.92-.45-6.64-1.12-7.09-.69-14.87-.38-20.08-.55,4.63-.72-12.22-1.06-17.42-1.66.52-.66,7.13.41,10.22-.19-6.09-.89-11.93.18-16.13-.84-.83.13.65.37,1.38.57-2.26.51-4.12-.13-6.33.23-5.4-1.5-13.36-.66-16.59-1.75-7.21.27-11.23-.6-17.17,0,2.79.16.84.21,2.9.64-8.73.44-10.75-1.08-10.98-2.14-2.09.42-.64.99-2.05,1.44-3.29-.3-6.64-.36-9.86-.83-1.06-.38,4.11-.1,5.58-.38.36.16-2.52-.07-5.77-.36-3.25-.3-6.86-.64-7.98-.6-1.78-.21-1.55-.89.17-.5.08-.61-3.07-.18-4.61-.25-.84.12.64.38,1.36.58-6.3-.29-15.59-2.33-24.33-2.09-1.2-.28-2.42-.56-3.63-.84-1.62.16-3.02-.35-4.7,0-6.21-1.69-13.33-.72-19.55-2.34-7.13.28-13.88-.59-20.53-1.75,4.34-.17,4.66-.44,8.03-.58-3.83-.19-7.76-.17-11.17-.23-3.41-.06-6.3-.25-8.07-.76-.12,1.08-5.76,1.22-4.04,2.54-3.79-.39-7.51-.97-11.29-1.38.01,1.14,13.92,1.32,13.2,2.65-1.63.19-2.93-.59-4.43-.8-.83.75-6.27-.36-9.47.14.62-.38,1.14-.78-2.63-1.45.13.63-2.33.6-5.77.77-2.24-.64-6.43-1.55-6.78-.83-2.68-.52-1.06-.85-4.34-1.05-1.41-.58.39-.31,2.53-.47-3.29-.32-6.58-.66-10.04-.53-2.5-.59,3.07-.65.45-1.25-1.43.1-2.81,1.04-5.59.27-.55.26-2.56.43.46.93-4.43,0-3.71-.07-5.69.52-1.69.33-2.83-.88-4.52-.55-3.67.25,1.77.62,2.8.95-2.08-.03-4-.52-6.14-.4-1.45-.43,3.42-.46.36-1-1.11.48-5.52-.12-3.8-.38-4.91.66-12.65-.27-19.05-1.67-.33.27-2.29.42-2.62.69,3.18.51,1.7.41,4.32,1.11,2.07-.05.51-.39-.53-.68,6.45.27,12.59,1.41,18.88,2.15-5.55.09-10.57-1.26-16.08-1.18,2.76.33,5.52.67,8.22,1.18-3.17.09-6.01-.76-9.39-.1-1.45-.45,1.47-.56-1.17-1.11-1.36.14-2.6-.09-3.97.07-1.92-.36-.21-.44.99-.56-1.43-.36-3.13-.06-4.49-.61-1,.65-5.87-.17-6.51.51-4.02-.74.38-.82-2.61-1.48-3.24.14-10.15-.87-10.55-1.34-4.9.09-4.61-.7-9.2-.72-1.63-.59,2.43.04,3.25-.26-4.15-.87-8.69-.66-12.89-1.39-1.79.26-2.17.36-2.71.94-2.53-.32-7.48-.47-7.95.15-3.33-.52,2.08-.35-1.25-.86-2.25-.33-4.72-.05-6.86-.67-3.01.1-1.16.55-4.06.32-2.37-.61,3.86-.55,3.54-1,1.93-.23,3.27,1.09,5.31.54-.53-.64-6.6-1.03-9.92-.9-2.7-.47-.71-.57-2.79-.98-4.01.13-12.07.03-13.16-.69-1.29-.25-1.49.08-.91.3-2.84-.17-5.71-.27-8.27-1.15-1.98.3-3.64-.18-5.6.12,3.46-.11,6.31,1.46,9.9,1.04,2.04.83-1.26.78,4.12,1.66-4.7.43-5.7-.59-6.84-.76-3.24.33,2.89.73,2.69,1.27,1.68-.25,3.21-.11,4.59.43,2.17-.28,3.87.2,4.07-.28-2.45-.49-4.67-.37-3.59-.96,1.86-.05,3.37.85,5.3.58,1.18.59-2.31.48,1.98,1.05-1.29-.98,3.4.29,6.12.48.43.18-.62.86-2.52.44,2.14.15,6.8,1.35,10.55,1.34,2.51,1.3,7.5.96,9.46,2.14,4.01.08,3.7-.49,7.94-.14.74.27-1.44.31-2.52.44,3.03,1.05,6.53.83,9.74,1.4,1.29-.23.59-.42-1.35-.62,2.34-.45,5.45.43,5.6-.2.2.13.76.87,2.89.74,1.38.59-.4.3-2.53.44,3.92.76,8.24.48,11.99,1.71,1.85-1.2,5.49,1.05,9.39.22-1.03.72,3.15.56,3.52,1.17-2.84-.13-5.71-.19-8.3-1.03-2.86.85-9.82-.56-14.45-1.52-.41.35-.82.7-4.24.82,7.79-.61,21.42,3.48,29.34,1.78,4.82.51,9.75.71,14.45,1.44,1.29-.25.6-.43-1.35-.6,1.63-.15,3.25-.3,4.88-.45,1.56.02,3.06.24,4.52.55-2.45.25-4.6-.34-7.14.17,2.17.48,4.5.59,6.69,1.08,1.08-.1,2.16-.2,3.25-.3,1.29.06,2.55.21,3.79.38,1.46.39-.49.56-2.62.72,5.66.6,3.45-1.01,9.49-.14.69-.17.75-.38-.55-.68,1.62-.11,3.2-.13,4.71.05-3.4.9,8.43,1.97,12.39,2.73-4.61.01-15.67-1.48-15.54-.51-4.62-.29-9.08-1.02-13.75-1.16-.7.68,5.51.58,7.5,1-3.75.1-3.68-.18-6.43.34-1.53-1.21-4.46-.42-5.69-1.65-4,.21-2.38.78-1.26,1.32-3.03.03-2.85-.76-4.34-1.05-1.9.17-3.64-.07-5.6.26-2.73-.47-.73-.57-2.8-.99-3.61.35-1.99-.13-5.33-.55-3.71.11-7.19-.49-10.93-.34-3.04-.53.62-.55-.44-.93,3.82.08,10.53,1.22,10.2.16-2.02-.24-4.24.07-6.33.02-.14-.18-.32-.37-1.35-.62-3.53.29-4.25.27-6.95-.42-4.53.12.19.95-4.34,1.07-.8.02-1.54-.12-2.36-.06-2.65-.55.01-.68.37-.99-1.82-.76-4.08-.37-5.96-.98-1.64.04-.96.27-.18.5-4.71-.06-8.89-1.58-13.91-.83-8.2-1.08-14.72-1.03-21.2-2.42-2.8.43-5.18-.24-7.77-.35-1.12.53-.07.75-2.72.94,3.42.83,3.51.67,5.77,1.47,1.9-.48.44-.43,3.44-.75,3.4.09,6.55.79,10.12.41,1.81.61-3.61.66-4.35,1.07,1.74.47,7.64.48,6.68,1.16,5.05.59,10.51.09,15.26,1.45-3.2.15-6.2-.33-9.4-.22,2,.27,4.12.29,5.96.98,1.02-.46,1.72-.41,3.06.24,6.22-.43,11.61,1.37,17.62,1.5,3,.49-.54.47-1.8.63,1.86.61,4.09.31,6.04.73-1.18-.55-1.08-1.01-4.87-1.79-.09-.22.38-.4.99-.56,1.82.1,3.56.36,5.33.55.79.32-1.93.36,1.27.86,2.01-.05,1.66-.29,2.54-.44,1.05-.03,1.98.32,3.07.24,1.69.68-1.74.16-1.82.63-2.41.15-4.44-.8-6.95-.42,23.59,2.53,47.45,3.92,70.98,6.37,1.9-.93,9.42.11,10.67.96,1.77-.44-.51-1.14,1.35-1.57,4.5.03,3.79,1.01,8.34.93.71.22-.88.28-1.72.4,3.8.4,7.86.07,11.58.63-5.04,1.03,8.93,1.39,14.77,2.71,3.18-.08-.18-.52-1.27-.83,6.21.39,3.41.38,9.06,1,1.01-.16-1.89-.53-.54-.67,1.56,0,3.07.2,4.53.5.33-.24,1.22-.44,3.34-.58,3.53-.21,2.16.79,6.16.33,1.08.31.25.52-1.8.67,9.11.87,7.54,1.17,19.12,1.42.53.24.46.45-.98.59,7.43-.34,14.37.76,21.71.67.29.19.6.37-.17.5,2.82.18,5.78-.07,8.78-.42,2.38.38,2.29.63-.25.75,9.34.19,18.1,2.15,27.82,1.16,2.83.42-.84.56,2,.98-1.62.18-3.02-.32-4.71.05,7.29.11,16.57-.24,25.55.74,1.34-.5-5.93-.66-1.19-1.07,3.89.7,7.03,1.27,10.52,1.23,2.56-.7-3.2-.2-5.27-.62,3.01-.43,5.73.01,8.62,0-.05.42-.91.81-1.98,1.19,7.84.16,13.77-.53,22.55.36.6.2-1.12.29-.15.5,1.19.3,2.53.22,3.72.55,2.97-.36,1.51-.44,4.88-.55.17.26.89.55,2.83.89,3.94-.1,7.75.23,11.6.39,1.69.4-2.53.34-3.17.11,2.71.9,9.49.28,11.86-.41,3.9.48.24.69-1.88.96,5.4.19,11.14-.67,16.4-.06,1.74.26-2.63.67-3.17.14.77.58,3.68.88,7.45,1.02-1.2,0-4.68,0-1.7.45-1.59.09-2.99-.4-4.7.09,2.4.55,5.14.17,7.61.52-.9-.37,1.38-.94,4.06-.5.89-.21-1.25-.16-2.19-.46,3.17-.13,6.26-.08,9.59-.69,3.57.47-1.9.61,1.2,1.06,2.39-.33,6.33-.2,6.5-.79,6.51.38,13.94.99,18.43.9.15-.29-.62-.62,2.59-.8,2.28.81-2.24,1.04,4.22,1.42-2.22.44-4.16.01-6.25.04.1.66,7.19.14,9.98.48.35-.2-.84-.45.98-.61,2.4.35,4.15.22,5.92.97,3.01-.2,1.13-.56,4.14-.75,2.31,0,4.17,1.27,8.43.42,2.1.33.1.51,2.85.86-1.91.27-3.66.08-5.44-.06,11.16,1.67,29.81.86,43.84,1.6.05.34-1.41.64-3.4.93,2.77.23,5.73-.1,8.44.35,2.15-.24,1.42-.56,1.04-.86,6.8.16,19.06,1.7,26.38.19,2.12.63-2.79.38-2.58.82,4.96.16,6.07.15,9.99.39.8-.19-.02-.42.97-.61,5.12-.11,13.27,1.57,16.16.56,1.74.34.76.62,3.58.99,2.37-.1,4.86-.66,6.99.01,3.92-1.26,13.15.55,19.48-.26-.68.24,2.71.56,1.3.79,3.95-.21,7.95-.6,11.55.35,1.65-.31,3.22-.41,4.78-.42.16.17.33.35,1.38.54.82-.39,5.02-.31,3.09.06,2.51-.32,6.54-.16,10.79.21-.83-.56,1.24-.57,4.06-.56.73.18-.87.32-1.69.48,3.8.27,7.73.08,11.53.35-3.19.56-3.97-.2-5.6.53,2.27.17,4.53.41,6.92.26.73.23-1.43.4-2.51.59-2.83-.06-5.41-.94-8.45-.29,3.45-.1,1.72.89,5.2.74.81.59-2.15.59-4.86.67-1.28-.32.7-.58,1.04-.87-2.9-.4-4.11.22-5.59.53-2.58-.06-5.21.12-7.64-.4,5.69.23,4.47-.73,8.68-.47,1.57-.44-4.86-.31.23-.76,3.08-.35-.87.78,2.19.42,4.18-.46.59-.29-1.3-.79,1.05-.04,2.1-.08,3.09.06-3.21-.53-13.44.02-19.25-.5,1.41.76-2.97.09-3.33.7,3.62.03,7.25.02,10.97-.3,1.39,1.72-11.13.96-15.17,1.36-5.53-.74.07-1.27-3.28-1.97-.47.83-5.06-.32-7.86.36,2.43-.08,9.15.34,6.67,1.02-4.08-.92-4.15.37-10-.32-3.03-.44,1.07-.75-1.95-1.19l-4.06.56c1.11.19,2.22.38,1.4.54-7.41.48-14.53.14-21.85.32,2.12.67,4.59.26,6.83.54-4.46.36-12.29.46-13.8-.6,2.02.15,4.11.09,6.32-.34,1.01-.46-3.67-.25-2.11-.7-4.89,0-9.28.91-12.35-.33-1.96.47-3.67.11-5.45-.02-.02.21-1.78.38-.97.61-5.53-.58-15.57.06-18.36-1-3.36-.03-6.76.1-10.15.11-.09-.21.37-.41.97-.61-2.83-.34-2.17.43-4.05.53-3-.51-1.04-.88.39-1.27-3.45-.31-7.89-.15-9.02-1-1.17.48,1.64,1.06-2,1.48,4.72.51,2.1-1.06,7.85-.3.86.53-.42.8-3.4.93-6,.08-11.52-1.31-17.54-1.1-2-.76,2.67-.35,4.87-.64-2.45-.43-5.16-.08-7.8.05.16.17.35.35,1.39.55-2.08.09-2.75-.37-3.17.17-4.2-.63-9,.58-13-.73-.66.56-7.18.42-7.71-.27-2.84,1-10.12.7-14.85.12-1.52.11-.71.31-1.72.45-3.89-.56-8.5-.34-8.19-1.18-1.89.23-3.78.46-5.69.69-5.13-.61,1.83-.79-1.12-1.32-3.52.4-6.82.18-10.07-.22-.61.4-3.94.71-5.04,1.1-1.98-.58,4.03-.88.5-1.51-.4,1.23-10.28.82-14.87.12-4.02.11-3.76.89-7.95.49.31-.44,3.39-.86-1.3-.81-.69-.41,1.55-.71,4.22-1-.46-.15-1-.11-1.54-.05-.48-.1-.97-.2-1.46-.31-2.56.25-.85.65-3.42.9-4.07.24-3.22-.76-7.38-1.28-2.99.4-5.58-.41-8.52-.17,2.85.82,5.99.75,9.18.58-.08.29,1.65.65,3.56,1.02-3.3-.25-3.06.34-6.9-.37-3.54.13,1.73.57-1.79.7-3.16-.71-10.42-.9-15.99-1.31-1.04.29,4.43.6,6.09.52.75,1.03-6.8.57-10.23.19-2.11-.71,5.41.19,3.26-.37-3.71-.82-3.19.31-6.99-.18,4.89-1.01-11.86-.34-16.63-1.75-1.94.44-7.8.48-12.02.87.75-1.09-12.03-.66-13.96-.36-1.11-.22-2.21-.44-1.38-.57-1.36.33-4.45-.25-7.88.16-2.18-1.03-5.36-.25-10.88-.23-1.04-.34,1-.55-2.01-.98-9.81.28-14.78-.65-24.83-.76-1.03-.39,1.02-.58-2.1-.75-.47,1-5.47.13-7.61-.67,1.37.85-3.84,1.13-8.06.58-1.13-.7,4.85.26,4.07-.42-1.2-.31-2.54-.25-3.73-.59-1.25.26.58.67-2.52.5-.86-.26,2.17-.31.98-.58-4.79-.59-6.49-.3-6.34.17-3.9.01.27-.79-3.63-.84.32.64-3.11.67-6.51.67-1.13-.82-2.39-.15-5.17-.92-.18.54-4.07.28-6.25-.09-.18-.31,1.66-.06.99-.58-1.46.72-13.21-.8-11.95.5-2.7-.51-5.92.46-8.6-.09-2.03-.67,2.67-.25,4.97-.75-2.76-.35-5.67-.23-8.44-.59-1.78,1.55-12.03.1-15.03.21.4-.46,4.21-.4,5.71-.52,1.52.27.73.39-.18.5,3.29.5,2.51-.21,6.33-.1-5.08-.48-6.39-.4-10.43-1.7-3.24.08.19.61-1.08.82-4.3-1.21-22.55-1.41-29.17-2.17-1.03.02-6.53.07-4.16.62-4.18.29-7.43-1.02-7.88,0-2.18-.48.48-.65.36-1,1.34-.05,2.49.38,3.72.63,2.58-.34-1.57-.91,3.43-.8-3.94-.27-4.59.05-9.5.14-.16-.18-.34-.36-1.37-.6-2.69.26,1.52.42.46.92-2.39.08-4.55-.52-7.07-.08,11.59,1.38,23.38,2.21,35.16,3.07,3.34.47-2.09.37,1.27.85,2.91.19,2.13-.17,4.06-.37,2.94.7-2.22.87-5.15,1.19-6.54-.47-13.54-2.08-22.2-1.84-2.32-.13-4.45-.79-6.8-.83,1.99.7,1.37.58-3.17.05-2.76.08-.2.5-1.81.65-5.48-1.34-7.06-.69-12.23-1.06-2.08-.39-.09-.52-2.81-.95.14.57-2.4.78-5.61.27-2.06-.39,4.11-.24.27-.75-1.12.19-2.11,0-3.08-.2-.17.2-1.07.35-2.54.47-6.54-.78-9.78-1.15-15.02-2.18-1.68.96-5.01-.65-8.59-.29-1.44-.6,2.99.08,4.07-.32-2.84-.19-5.69-.29-8.41-.79-1.59,0-3.38.55-4.81.13.76.73-.15.59-4.26.82,5.94.32,8.13,1.3,13.04,1.15,2.66.79-2.03.3.45.93,3.26-.13,3.59-.49,2.71-.94,1.87-.04,3.62.24,5.53.05-.08.83,4.97.81,7.6.85,1.79.69-3.44.22-4.26.82,2.92.33,3.11.13,4.8-.14.91.27,3.02.96,7.43,1.33.05-.34,2.82-.49,4.98-.7.83.48-.47.82,2.63,1.45,2.19-.24,4.1.31,6.17.4-.94.24.84.65.45.92,8.31.3,16.44,1.06,24.55,1.87,4.91-.49,9.14.92,13.96.66,7.69,1.83,20.02.53,25.11,2.54,1.7-.36,3.14.05,4.8-.2,1.89.61,3.92.77,5.9,1.12-3.23.15-5.64-.56-7.16.2,1.54-.59-1.79-.44-4.44-.8-2.08.41.91.46,2.9.7-3.81.36-7.28-.21-10.87-.46-1.32-.34,3.63-.18,4.7.05-1.08-.73-9.24-.57-13.05-.98,1.63.6,3.63.13,5.26.73-7.05-.62-9.91-.18-16.41-.44-2.18-.44,5.26-.25,1.1-.82-1.09.1-2.19.2-3.27.3-6.59-.95-14.67-1.04-19.41-.89,4.67-.41-2.75-.68-6.71-1.08-.56.29-2.6.46.55.67-5.66.6-6.01-.91-10.87-.46-2.08-.52-.84-.82-.37-1.17-2.07-.33-5.71.29-5.73.52-1.64.05-3.88-.31-5.85-.56-1.97-.27-3.65-.46-4.2-.02-1.37-.11-6.44-.86-5.17-1.04-3.16.36-11.71-.15-18.58-1.2,4.14.03,3.67.11,7.25-.33-2.46-.45-4.96-.9-7.43-1.35-2.31-.03,2.05,1.07-1,.56-1.62.54,3.5.26,4.63.36.39.87-8.83.72-12.51-.47-5.11-.45-10.85.77-15.69-.46-1.08.08-2.17.17-3.26.25-2.51-.45.29-.49.28-.74-3-.45-6.45.29-9.33-.47-1.43-.6,3.06-.1,4.08-.32-8.76-.34-17.02-.47-22.28-1.87-2.58-.15-5.1-.52-7.88-.19,1.72.37,2.09.62.54.69-2.88-.89-11.49-.84-16.73-2.05,1.91-.16,3.82-.29,5.52.13-1.39-.57-9.55-1.33-13.65-1.77-3.77.29,2.66.25,3.62.97-2.74.18-5.15-.45-7.89-.21.52.26.43.47-1.02.54,1.9.54,2.81.31,2.88.78-1.03-.06-2.08-.12-3.17-.04-3.58-1.3-4.79-1.15-9.57-2.03,2.79-.37,4.99.83,7.78.46-1.62-.63-3.52-.48-5.14-1.11,1.41.64-5.81.39-8.8.08-.71-.24.89-.26,1.73-.35-1.82-.78-4.07-.42-5.95-1.06-1.4.13,1.94.69,1.24.88-5.54-.06-10.68-1.18-16.19-1.36-.26.65,3.94.26,6.05.81.43.17-.09.25.62.44-3.82-.6-5.06-.22-9.42-.36-.05.72,3.78.84,5.43.37,3.43.66-3.68.44,1.25.88-2.5.17-7.89-.2-4.29.76Zm291.46,27.77c3.01-.37,5.67.32,8.45.59-2.96.25-5.71-.13-8.45-.59Zm234.89,14.42c-2.54.52-7.77-.13-4.15.78-4.5.2-8.8-.14-13.1-.59,2.3-.45,2.68-.09,4.97-.85,1.23.21,2.41.6,3.73.51,1.07-.13-.53-.36.16-.5,2.76.33,5.81-.25,8.39.64Zm1756.44-53.52c2.74-.52,2.11-1.01,5.47-.63,0,.38-3.44.94-5.47.63Zm-2.86-13.64c4.83-.53,5.38-.69,9.51-1.7,1.66.48,3.52.08,5.4-.37,2.4.43,2.9.45,4.31,1.08,4.07-.69,1.39-1.08.35-1.55,6.26-.02,5.57,1.24,1.8,2.09-5.15-.7-10.94,1.3-16.21,1.11-2.66-.43,3.02-.44,1.73-.84-2.48.42-6.91.68-6.88.18Zm-478.02,15.1c-2.97.47-5.64-.1-8.54.15,2.98-.5,5.78-.45,8.54-.15Zm-243.38,4.51c-1.25-.42-6.48-.22-5.16-.82,2.02.54,7.68-.02,5.16.82Zm-183.75,3.04c2.02.09,4.22-.4,6.12.17-1.73.42-7.19.37-6.12-.17Zm-1075.6-12.75c-3.34-.16-6.68-.3-9.85-.92,2.83.2,9.76.28,9.85.92Zm62.58,11.42c-.41.55-14.03-.19-11.42-.89,3.64.8,7.8.03,11.42.89ZM183.75,24.86c.87-.14.54-.38,2.54-.44,1.17.36,2.5.34,3.7.67-2.2.22-4.36.37-6.24-.23Zm352.54,39.93c-7.05-.19-10.17-.33-16.15-.69,5.53-.24,10.9.07,16.15.69Zm-148.82-6.67c-2.33-.2-8.71-.36-8.35-.84,2.35.11,8.76.22,8.35.84Zm-75.96-5.29c0,.19-2.96.9-4.79.2-1.29-.42,3.77-.57,4.79-.2Zm-192.82-5.18c-1.57-.31-.92.11-2.46.16-2.01-1-4.78,0-6.77-1.01,2.86-.43,9.34.42,9.23.85Zm107.38,12.2c-2.08-.12-4.28.13-6.17-.48,3.54-.39,5.76.4,6.17.48Zm104.98,11.24c-.39.47-5.29.15-7.7-.5,2.75-.34,5.22.13,7.7.5Zm22.36,1.38c-2.73.17-9.26-.4-9.1-1,2.97.5,6.24.16,9.1,1Zm-150.09-36.64c5.09.48,10.36.49,15.35,1.2-5.02.27-13.23-.56-15.35-1.2Zm215.1,48.84c-.58.54-5.91.24-8.54-.33,3.06-.51,5.83-.17,8.54.33Zm-98.33-22.73c-2.56-.19-5.28.06-7.71-.51,2.24-.23,8.38-.1,7.71.51Zm-115.94-28.34c-1-.46-6.05-.29-4.42-.86,2.04.28,6.91.3,4.42.86Zm5.51.05c1.11.82,2.34.34,5.23.79-1.32.11,1.55.55.54.68-3.73-.36-2.55-.74-6.13-.48-.73-.18-1.45-.37-2.18-.56.89-.14.53-.39,2.54-.44Zm13.98,2.75c-2.58-.13-5.31.13-7.67-.6,2.79-.41,5.29-.05,7.67.6Zm93.95,19.25c1.61-.11,3.19-.13,4.7.05-3.58.18-1.67,1.53-6.6.84-1.14-.67,4.52-.31,1.9-.9Zm-70.01-17.76c-1.08.08-2.17.17-3.26.26-.71-.18-1.43-.37-2.16-.55,1.98-.37,3.65.08,5.42.29Zm-44.01-11.24c-.94-.96-3.14-.18-6.04-.73-.21-.85,11.3.41,6.04.73Zm131.05,29.86c4.83.82,11.23-.07,13.68,1.26.66-.73,5.97-.43,8.61.08-7.47-.23-6.43.73-13.67.92-2.66-1.18-2.82-.03-4.35-1-3.95.02-12.06,0-13.14-.69.65.13,4.88.29,3.17-.05-2.64-.02-5.17-.26-7.63-.76,2.22-.31,4.15.14,6.08.65,2.52-.22,6.9.26,7.23-.42Zm79.62,19.64c-.29.63-4.69.22-7.08,0,.27-.51,4.76-.41,7.08,0Zm-95.95-22.5c.98.24,1.94.47,2.9.7-1.64.22-3.24.24-4.71-.05,3.53-.02-1.72-.62,1.8-.65Zm-88.29-23.79c-2.52.38-4.4-.93-6.95-.41-2.34-.54.55-.86-3.52-1.17,5.6-.48,5.94,1.12,10.46,1.58Zm42.72,10.33c-2.43.23-4.93.59-7.06-.08,2.32.11,4.92-.54,7.06.08Zm-29.02-6.82c-2.49-.93,5.49-1.17,8.86-.5-.14.47-2.42.68-4.16.61.1-.65-2.98-.47-4.7-.11Zm138,27.75c.09-.65-2.99-.4-4.71,0-2.02-.15-2.78-.32-2.92-.67-5.61.32-10.69-.87-16.31-.5-2.37-.44.6-1.09-3.73-.59-2.55-.51-2.34-1.53,1.89-.92-.9.12-1.7.25-.18.5,1.04-1.39,9.9-.47,15.14-.58,1.21.28,2.41.56,3.63.84,3.1.1,6.43-.47,9.34.25-1.67.72-8.8.48-12.6.08.71.22-.45.2-1.62.17,2.55.18,4.95.85,7.53.92,4.11-.51,8.14-.84,11.79,0-6.22-.35-4.76.3-7.24.5Zm-103.47-20.95c1.47-.16-1.82-.63.28-.75,1.33.66,3.19-.11,4.52.55-2.47.26-1.95.72-5.05.95-.73-.18-1.46-.35-2.18-.53.81-.07,1.64-.15,2.44-.22Zm217.95,48.89c1.04.44-4.34.72-5.54.14,1.86-.1,3.92-.77,5.54-.14Zm-34.32-9.93c-2.08.78-10.03-.7-6.91-.43,2.27.23,4.76-.15,6.91.43Zm-190.43-44.13c-1.08.1-2.17.2-3.24.3-.73-.22-2.19-.48-1.37-.6,1.5.28,1.89-.48,4.61.3Zm28.21,4.66c-1.54.11-1.17.35.55.68-1.35.12-2.7.25-4.06.37-2.28-.25-4.46-.73-6.7-1.08,3.36.14,6.82-.02,10.21.03Zm-26.58-4.81c1.64-.27,1.13-.69,1.17-1.07,1.45.35,3.14.02,4.52.55-6.48.48,5.41.79,3.44,1.37-2.97-.57-10.35-.21-10.57-1.2.49.12.96.23,1.45.35Zm39.8,7.46c-.96-.98-5.08-.37-8.33-.93,2.35-1,10.82.11,8.33.93Zm6.06.66c2.77.3.63.85,2.9.7,1.44-.21-.38-.62,1.07-.83.97.23,1.93.47,2.91.7-1.22.13-2.93.23-1.01.57-1.9.21-3.8.39-5.5.02.91-.11,1.71-.23.18-.5-2.9.07-1.09.44-3.35.55-3.38-.69,1.89-.81,2.8-1.22Zm20.38,4.62c-3.5.36-6.84.09-9.96-.74,3.47-.16,6.74.22,9.96.74Zm-54.67-12.1c3.95-.05,7.51.98,11.48.88-3.39.33-5.5.06-10.13-.28.82-.12-.26-.36-1.35-.6Zm116.81,25.3c-1.09.11-2.18.22-3.27.33-1.86-.64-3.92-.75-6.16-.34-.71-.16-1.44-.33-2.18-.5,4.01-.24,7.77.24,11.61.5Zm-100.26-23.2c-2.22-.42-4.62-.3-6.79-.83,2.02-.33,7.68.32,6.79.83Zm199.04,44c-4.23.17-8.16-.58-12.36-.54,1.68-.76,8.59.09,12.36.54Zm-214.7-48.6c-.39-.32,1.57-.49,2.61-.72,2.1.03,4.14.16,6.15.4.71.43-.62.73-1.16,1.07,3.89-.66,7.38-.15,11.02-.04,2.97,1.09,6.04,1.15,11.12,1.88-2.53.5-10.63-.54-15.36-1.01,1.29.3,1.22.51.55.67-4.6-.3-5.86-.6-3.63-.88-3.58-.08-14.71-.36-17.43-1.78,3.64.59,2.8.07,6.14.4Zm38.63,8.54c-1.4.55-2.88.81-7.14.17,5.15.36,2.02-.61,7.14-.17Zm-28.42-6.34c1.73.3,3.57.28,5.25.73-2.33.3-7.73-.32-5.25-.73Zm116.49,26.18c1.26.18,2.54.23,3.9.09,1.21.28,2.42.56,3.63.83,5.39-.31,6.53.28,12.5.1-1.61.18.96.55-1.79.69-2.92-.61-6.1-.48-9.25-.45,1.08.48,1.25.92-1.98,1.17-2.24-.31-4.54-.48-6.72-1,2.45-.29,4.66.17,7.15-.25-1.14-.58-7.09-.62-7.45-1.17Zm2.09.75c-2.7.24-5.22-.01-7.61-.67,2.67-.16,5.09.4,7.61.67Zm-98.96-24.63c3.35.48-2.07.37,1.27.85-2.15.17-4.2.03-6.14-.4.05-.33,2.85-.59,4.87-.45Zm216.97,48.82c-2.16.23-4.33.48-6.26.04,2.2-.38,4.24-.21,6.26-.04Zm-221.22-50.12c1.55.31.68.47,2.07.77-1.91.25-3.66,0-5.32-.48,1.08-.1,2.16-.2,3.25-.3Zm65.16,13.4c1.33.28,2.07.54,2.1.75-3.4-.04-6.83.1-9.96-.67,2.76-.44,5.08.39,7.87-.08Zm-52.49-11.42c3.92.75,8.26.33,12.2,1.06-4.07-.38-8.49.27-12.38-.56,1.06-.1-.54-.38.18-.5Zm17.48,3.9c1.09-.11,2.16-.22,3.25-.33.84.34,2.59.74,1.99,1-1.62-.58-3.62-.09-5.24-.67Zm-20.84-5.52c1.12-.27-4.81-1-1.18-1.1,3.83.24-.17.53,3.53,1.13-1.36.12-2.7.25-4.06.37-.8-.35-5.38-.51-3.61-.87,1.84-.02,3.52.41,5.33.48Zm120.13,26.84c-3.24-.43-3.08.4-6.99-.18,2.04-.44,7.92-.48,6.99.18Zm-78.66-19.81c-2.84-.08-5.75,0-8.5-.33,3.02-.45,5.72.06,8.5.33Zm203.47,44.53c-1.87.13-3.76.37-5.44-.06.08-.49,3.5-.57,5.44.06Zm-181.25-40.77c-2.77-.32-5.67-.23-8.34-.84,2.53-.36,8.67.43,8.34.84Zm73.41,16.8c3.62.06,7.15.45,10.7.73-3.41.39-12.65.15-10.7-.73Zm-106.04-28.91c-3.24.29.3.16,1.37.58-1.97.41-3.5-.43-5.43-.17,2.33.83,4.98.69,7.43,1.17.58.26,3.16,1.26-1.07.84,1.76-.39-2.89-.32-3.64-.84-3.33.58-6.1-.46-9.31-.25-2.09-.74-3.59-.94-7.41-1.2-1.32.13,1.55.53.55.67-6.58-1.13-2.53-1.4.79-2.24,1.66.32.33.45.55.68,1.35-.11,2.46.42,3.79.35-1.33-.28-2.08-.54-2.08-.75,2.93-.25,4.83.3,4.05-.42,1.81.11,3.64.06,5.26.66-1.12.21-3.16-.03-2.44.25,2.58.13,5.1.38,7.6.67Zm21.58,5.51c.08-.46,2.69-.17,4.79-.25,1.12.82,5.64.53,9.05,1-3.76.56,3.32.18,4.36,1-3.43.09-6.56-.64-9.95-.67-6.22.41-5.03,1.94-11.37,1.17,4.59-.21,10.31-1.43,3.13-2.26Zm218.83,47.53c.56.32-4.16.45-1.06.86,4.3-.23,2.38-.68,4.22-1,1.2.31,2.54.23,3.75.51-2.62.87-5.76.98-8.37,1.75-5.28-1.17-6.3-1.12-11.97-1.69,3.41-.34,8.06-.72,13.43-.42Zm-115.88-23.31c-1.39.46-4.02.49-7.07.07,2.41-.15,4.74-.07,7.07-.07Zm-141.73-32.09c-1.46.16,1.83.63-.26.75-3.7-.08-3.31-1.19.26-.75Zm52.82,10.29c-2.16.22-4.33.45-6.49.67-.97-.21-2.04-.12-2.99-.42-.55-.6,5.99-.79,9.48-.25Zm95,22.32c1.93.39,3.84.33,2.1.73-1.46-.32-3.13.05-4.54-.46.81-.09,1.62-.18,2.44-.28Zm-49.76-12.53c3.99.77-3.32.84-5.61.39,1.95-.4,3.65,0,5.61-.39Zm-75.06-16.39c1.53.07,4.48.78,1.99,1-1.91-.4-3.66-.79-1.99-1Zm129.7,28.37c-.46.06-.85.13-.09.25,1.37-.17,2.65-.11,3.91.04-2.7.29-5.31.29-7.79-.09,1.34-.11,2.74-.39,3.98-.21Zm-1.51-2.49c-2.43-.55-5.29.23-7.72-.34,2.26-.33,8.37-.28,7.72.34Zm-150.86-34.92c-1.58.45,3.07.45,2.35.03,1.94.4,1,.65.45.92-3.41-.34-2.8.04-7.66-.5,1.19-.33,2.67-.55,4.87-.45Zm309.6,63.09c-2.2.4-4.14-.07-6.18-.16,2.2-.4,4.26-.35,6.18.16Zm-164.19-35.3c-1.92.29-3.67.08-5.35-.36,1.92-.29,3.67-.08,5.35.36Zm65.02,13.72c3.44.51-1.09,1.06-3.27.4,2.29-.26.42-.46,3.27-.4Zm-52.12-12.52c3.53-.38,10.86.13,11.42.89-3.09-.86-6.7-.19-10.05-.32,1.42-.3-2.12-.14-1.38-.57Zm190.5,35.77c-3.41.07-6.81.16-10.01-.39,3.3-.24,9.46-.32,10.01.39Zm-281.2-58.9c-1.54-.28-6.98-.64-5.89-1.09,1.68-.12,6.97.7,5.89,1.09Zm62.21,10.13c2.35.75,5.01.58,7.44,1.09-2.97.34-5.55-.5-8.66.26-1.44-.42-3.07-.18-4.45-.71,3.63-.28,2.85-.19,5.67-.64Zm105.95,21.93c2.84.48,3.92.9.41,1.16-2.36-.18-2.95-.87-6.75-.87,2.26-.53,4.14.1,6.34-.29Zm-113.15-28.37c-2.98.31-5.92.56-8.68.25,2.97-.31,6.01-.85,8.68-.25Zm62.32,14.48c-1.92.3-3.67.08-5.35-.36,1.92-.29,3.67-.07,5.35.36Zm-21.52-5.79c-2.95.27-5.84.37-8.51-.25,2.96-.25,5.7.08,8.51.25Zm19.26,3.15c3.94.68,8.28.1,12.33.45-2.82.81-7.53.31-13.3.14-.86.15-.52.44-2.35.02.33-.24,1.21-.46,3.32-.62Zm63.3,11.41c-4.03.4-7.86.2-11.68-.03,4.04-.44,7.86-.19,11.68.03Zm-105.31-23.6c-2.16.22-4.17.03-6.25-.02,1.6-.35-.13-.85,1.96-1.19,3.17.48,1.59.75,4.29,1.21Zm-12.48-.04c-1.06-.69-3-.49-5.9-1.03,5.3.11,9.83-1.1,12.47.04-4.48,0-4.3.55-6.57.99Zm12.86,1.2c-1.43-.59-7.14-.13-5.98-.77,2.83.11,5.7.06,8.32.75-1.54.14-1.17.37.56.66-2.67.21-5.26.18-7.77-.09,1.21-.21,6.09-.01,4.87-.55Zm51.46,9.59c-1.98-.33-4.19.06-6.09-.47,1.74-.35,7.13.13,6.09.47Zm-9.25-.33c2.35-.2-2.18-.69,1.07-.85,3.31.34,1.83,1.16-1.07.85Zm16.94,3.02c2.2-.39,4.21-.17,6.31-.29,1.88.61,3.99.54,6.01.72-3.38.14-1.91.21-4.87.59-1.22-.53-2.19-.77-5.36-.32-1.32-.26-2.08-.5-2.09-.71Zm117.43,22.4c-2.31.5-5.57.18-5.67.74-.5-.1-.98-.2-1.47-.29-.54.06-1.07.1-1.55-.04,1.49-.56,5.43-.84,8.69-.41Zm94.79,20.37c1.95.23,3.88-.06,3.75.46-2.22.49-5.98-.11-3.75-.46Zm-264.22-55.38c-2.33-.05-4.59-.28-6.8-.68,2.08-.59,7.55.5,6.8.68Zm153.82,30.26c-3.18.23-6.27.15-9.27-.24,3.19-.23,6.28-.15,9.27.24Zm-124.12-28.06c-1.57-.23-.89.15-2.44.27-3.23-.26-3.2-1.01-7.61-.59-.47.42,4.47.51,2.03.98-3.04-.12-4.81-.43-5.91-1.03,4.37-.53,12.63-.49,13.94.36Zm102.42,22.89c3.28.27,6.87-.38,9.98.39-2.98.42-5.75.14-8.69.4-1.9-.3-2.54-.58-1.29-.8Zm-57.25-13.35c1.53.09,3.01.28,4.44.67-2.27.51-6.8-.36-4.44-.67Zm-33.68-8.96c-1.15.13-1.44.29-1.71.45-1.52-.09-3.02-.28-4.45-.68,2.15-.2,4.21-.15,6.16.23Zm48.99,9.75c-2.32-.04-4.89.69-7.06.14,2.44-.31,4.8-.37,7.06-.14Zm21.65,2.93c-3.19.51-3.98-.26-5.6.44-1.34-.26-2.09-.5-2.12-.71,2.74-.39,5.3-.3,7.72.27Zm-16.87-.84c2.91.64,6.32-.29,9.14.57-2.82.64-9.29.07-9.14-.57Zm-43.5-9.94c-2.27.58-4.13-.07-6.08-.47,2.19-.36,4.06.3,6.08.47Zm49.33,8.74c-2.21.44-4.16,0-6.24.03.17-.58,4.14-.56,6.24-.03Zm9.57-.69c-4.17.4-5.87.37-6.57,1.04-2.8-.09-1.77-.49-2.83-.86,2.19-.38,4.2-.17,6.32-.29-.99-.17-3.1-.17-2.2-.46,4.75-.13,6.76.44,9.82.98-.87.18-.51.41-2.51.55-3.02-.4-.99-.63-2.03-.96Zm11.11,1.79c-5.3.32-10.41.07-15.5-.29,1.05-1.17,10.34-.3,15.5.29Zm-71.05-13.83c-3.93.09-7.68-.35-11.5-.53,3.93-.14,7.83-.14,11.5.53Zm21.85,4.59c-.38.32-.85.95-4.05.49.07-.15,2.14-.83,4.05-.49Zm-4.45-3.09c4.17.44-3.24.48-1.05.86,1.96.33,4.28-.38,6.15.21-4.29.44-8.33.05-12.39-.18,1.18-.51,5.3-.13,7.29-.89Zm59.32,14.06c5.25-.59,10.32.69,8.12,1.4-2.22-.57-1.67-.78-8.12-1.4Zm1.29-1.61c-1.35.16-2.71.33-4.04.5-.73-.2-2.23-.42-1.39-.56,1.68.44,3.87-.7,5.44.06Zm-28.87-7.13c2.17.38.2.6-1.05.86-.97-.19-2.04-.08-3-.36,1.36-.17,2.72-.33,4.05-.5Zm-12.14-3.35c1.57.52,1.35.98-1.23,1.36-3.48-.58-1.67-1.4,1.23-1.36Zm37.59,8.96c2.44-.5,6.14.34,6,.72-3.96.45-2.73-.21-6-.72Zm-24.47-8.63c1.22.28,2.45.45,3.73.51-3.84.18-4.48-.37-7.13.39-.98-.84-3.76-.28-6.72-.87,3.48-.36,6.61.37,10.12-.03Zm21.15,2.02c-4.61-1.04-13.93-.2-15.97-1.2,4.49.21,16.96-.15,15.97,1.2Zm-4.63-.16c-1.58.2.96.54-1.77.7-1.25-.17-2.55-.15-3.73-.51,3.45-.06,2.19-.54,5.5-.19Zm27.08.47c1.64.53,3.62,0,5.28.52-2.15.2-4.26.31-6.26.09.99-.19.18-.42.98-.61Zm66.69,10.19c-2.7,0-10.74.36-8.36-.6,2.17.6,8.73.07,8.36.6Zm74.58,14.83c3.49.41-1.06,1.11-3.31.7,2.24-.21.42-.5,3.31-.7Zm-76.7-15.53c-1.91.33-3.61-.03-5.35-.27,2.12-.17,2.14-1.03,4.14-.78-.77.32,1.06.71,1.21,1.05Zm2.68-1.07c3.82.46.11,1.27-2.6.82.15-.29-.62-.61,2.6-.82Zm-29.74-6.78c2.09.79,4.7-.1,6.82.56-3.99.32-7.83.17-11.67.07,1.61-.21,3.24-.42,4.85-.63Zm30.04,5.77l-3.23.42-2.2-.44c1.96-.47,3.66-.1,5.44.02Zm13.09,2.9c4.16-.54,3.31.53,7.55.69-2.66.18-7.48-.21-7.55-.69Zm9.82.87l2.92.57c-1.75.42-7.28.49-6.17-.12,1.95.33,2.96-.34,3.25-.45Zm75.58,14.07c-1.83.05-3.53-.3-5.29-.48,10.86.02,21.69.15,32.33.83-3.38.89-6.04-.51-9.34.12,1.94.34,3.84.23,2.12.68-3.41-.06-1.83-.58-5.13-.99-3.54.58-6.59-.46-10.15.19,2.03.15,4.12.05,6.02.62-1.66.33-3.11-.02-4.79.42-2.75-.24.92-.98-2.86-.82-2.34.25,2.22.64-1.04.87-1.57.06-3.08-.1-4.56-.34.29-.38,3.56-.7,2.67-1.1Zm-84.85-16.71c3.38.81,7.16.29,10.63.75-2.17.47.41.95-4.21,1.07-3.57-.41-.65-.69-1.22-1.04-2.36.1-4.62-.13-7.06.2-2.66-.41-.6-.7,1.86-.97Zm-26.08-6.05c-2.7.34-5.43.81-7.85.3,2.63-.13,5.41-.77,7.85-.3Zm54.62,11.6c-1.09.15-2.17.3-3.25.45-.73-.14-1.48-.28-2.2-.42,1.91-.33,3.75-.43,5.45-.02Zm24.05-2.59c1.33-.08,2.59-.05,3.82.2-5.75.56-8.25-1.1-11.21-1.36-1.34.18-2.69.37-4.04.56-5.69-.87-11.63-.85-17.62-.72-.84.61-3.21,1.06-5.02,1.18-.12-.99-2.97.29-6.08-.37,5.1-.58,9.11-.91,12.15-1.68,4.67,1.22,13.84.14,20.11.13-.78.24-5.04.41-3.32.7,2.93-.31,5.72-.11,8.68-.47-.99-.15-3.11-.12-2.21-.42,2.74.48,9.84-.22,9.9.57-3.69-.41-9.74.45-6.55,1.15.65-.91,10.63-.21,10.78.21-2.84-.08-11.06-.61-9.4.33Zm3.47-1.21c.01-.28,3.47-.57,5.6-.53-1.52.38,3.45.17,4.46.59-3.47.39-6.73.09-10.06-.07Zm-82.22-7.54c3.9-.07,7.73.12,11.52.43-3.71.16-10.57.31-11.52-.43Zm30.2,5.27c-1.49-.18-3.17.21-4.54-.38,1.34-.63,6.04.08,4.54.38Zm14.53.67c-1.96.32-7.79.4-6.89-.26,2.25.25,4.65,0,6.89.26Zm-26.24-5.44c-.1.38-4.12.56-6.25.09,2.19-.4,4.22-.25,6.25-.09Zm127.94,22.84c-.76.56-4.65.04-4.12.84-3.76-.4,1.89-1.25,4.12-.84Zm8.52-.02c-.15.56-4.03.34-6.48.94-.72-.14-1.47-.28-2.19-.41,2.96-.38,5.96-.95,8.67-.53Zm-89.45-16.85c-1.9.07-7.8.42-6.9-.26,2.27.19,4.7-.15,6.9.26Zm-13.43-4.21c-1.92.34-3.75.43-5.44.03,1.91-.33,3.75-.43,5.44-.03Zm44.61,6.21c2.03.09,4.11.02,6.15.12-2.63.39-2.82.87-6.4.64,1.46-.23-1.86-.54.25-.76Zm15.83,1.45c1.22.25,2.47.42,3.75.45-.54.08-1.09.15-1.62.23.4.09.75.18-.08.25-4.11-.66-1.22.53-3.31.7-1.74-.22-3.64.06-5.28-.48,3.76-.35,3.91-.78,6.55-1.15Zm-8.54-2.46c.94.23,2.98.48,2.12.68-3.52-.3-7.35.37-10.72-.46,4.07-.32,6.13.28,8.6-.22Zm219.47,40.49c2.68.36.62.69-1.83,1.01-.98-.19-2-.23-3.02-.27.03-.34,2.81-.76,4.85-.74Zm-133.64-24.57c2.66-.24,5.19-.09,7.64.35-2.51.43-2.94,1.4-7.21.8,2.42-.49,4.14-.89-.44-1.15Zm-59.66-12.74c-2.94-.04-3.52-.49-2.85-.82-5.58.5-14.99.06-17.54-.97,6.38.7,14.04.49,18.58.1-1.09.32-.19.68,1.24,1.05.44-.55.71-.57,4.06-.57,1.67.23.35.43.56.64,1.78-.67,1.75-.2,4.72-.2-2.08-.55,2.72-.61,4.7-.2-.07.44-3.36.27-5.68.82-5.31-.21-5.57-.58-7.78.14Zm-55.25-12.02c3.91.6,7.16-.56,9.48-.58,3.11.71-1.65.54-3.47,1.21-1.38-.54-3.1,0-4.71.16-1.9-.29-2.54-.56-1.3-.79Zm54.4,9.71c3.27.3,6.62.33,9.91.52-2.4.24-4.75.35-7.06.29,1.48-.17-6.23-.2-2.85-.82Zm-27.29-7.15c-.03.34-3.56.92-5.58.53,1.84-.11,3.87-.83,5.58-.53Zm-3.85-2.62c-1.94.44-3.62.08-5.59.53,1.94.34,3.84.23,2.13.68-2.31-.21-8.7-.06-8.28-.8,3.38-.31,6.94-.93,11.74-.41Zm49.25,11.29c1.2.62,6.68-.26,5.29.45-2.2.11-7.8.3-5.29-.45Zm-14.76-4.9c-3.15.14-6.2,0-9.34.08.35-.35,9.28-.7,9.34-.08Zm-27.09-5.23c-1.14.15-1.43.31-1.69.48-1.78-.29-7.59-.26-6.73-.77,2.7.42,5.77-.31,8.42.29Zm74.31,10.28c-4.86.32-12.53.22-18.65.28,1.06.31,2.86.63.5.9-.66-1.09-3.2-.3-7.48-.86,2.98-.47,5.27-.44,4.28-1.35,4.73,1.47,14.11.41,21.35,1.03Zm193.84,37.97c-2.51-.2-5.32.57-7.73,0,2.17-.2,8.35-.6,7.73,0Zm-129.08-24.09c1.44.42,2.97.43,4.64.03,2.83.8-5.42,1.67-9.64,1.21,4.7-.51,4.46-.55,5-1.24Zm-123.74-23.61c-4.72.21-9.24-.2-13.87-.26.82-.11,1.63-.23,2.43-.34,3.75.41,7.7.19,11.45.6Zm70.84,14.08c-3.1-.08-10.3.07-10.64-.64,3.01.35,10.35-.25,10.64.64Zm-6.95-2.63c3.94.6,8.19.17,12.19.66-4.57.53-12.92.11-14.62-.31,1.35.18,2.27-.16,2.43-.35Zm-57.66-11.58c-1.32.18,1.59.45.58.65-1.98-.3-4.17.13-6.08-.37,1.9-.3,3.78-.57,5.5-.27Zm14.53.59c-2.73.48-5.28.39-7.78.16,2.6-.1,5.3-.49,7.78-.16Zm44.39,9.35c4.56-.53,5.24.11,8.3.74-1.48.19-2.36.4-2.52.6-.48-.09-.96-.18-1.46-.27,1.61-.6-.51-.84-4.32-1.07Zm-51.56-11.22c4.06.2,8.35-.31,12.25.41-4.06.07-2.99.92-6.46.94-4.11-.32.42-1.17-2.78-1.06-1.23.28.63.6-2.57.86-2.09-.41-.88-.77-.44-1.15Zm17.96,2.01c-.32.25-1.19.5-3.31.72-1.88-.64-4.09-.1-6.02-.59.55-.08,1.09-.16,1.62-.23,2.18.52,3.9-.07,7.71.09Zm59.75,9.79c-3.62-.06-13.98,1.02-12.35-.15,3.96.59,8.41-.5,12.35.15Zm22.53,2.32c-2.13.23-4.23.36-6.24.18.09-.38,4.1-.62,6.24-.18Zm1.17-1.39c-4.66-.33-16.65.49-15.99-.83,4.69.71,13.89.06,15.99.83Zm26.06,3.35c-2.2.45-4.23.34-6.25.22.11-.4,4.07-.5,6.25-.22Zm-4.84-1.94c4.05,1.1,8.69.24,12.94.72-2.77.77-11.2.07-16.25.02,2.25-.24.42-.51,3.31-.74Zm1.7-.5c4.35.71,5.23-.93,10.14-.32-4.31.41-2.23.3-4.12.87-2.28.02-8.51.15-6.02-.55Zm26.15.42c-2.47.5-4.8.52-7.07.34.23-.47,4.84-1,7.07-.34Zm-48.87-9.87c-2.77.66-5.22.22-7.78.16,2.61-.11,5.29-.49,7.78-.16Zm-1.39-.52c-1.71.37-7.17.18-6.08-.33,1.95.34,4.24-.36,6.08.33Zm11.15,1.48c-1.38.25,1.98.52,1.32.77-1.91.36-3.75.48-5.44.09,2.53-.21.09-1.08,4.11-.86Zm.02-2.68c-.4.2-3.51.61-2.66,1.13,1.88-.25,3.59.07,5.29.41-3.96.32-8.04,1.07-11.75.56,6.01-.58,1.99-2.75,9.12-2.11Zm66.99,13.94c-1.54.55-6.67.32-5.36-.16,1.74.2,3.71-.37,5.36.16Zm-55.98-11.95c-1.91.36-3.75.48-5.44.09,1.9-.36,3.75-.48,5.44-.09Zm47.54,9.1c3.66-.1,10.5-.24,11.46.46,2.89-.41,8.02.32,8.65-.58.99.18,1.97.35,2.93.53-2.13.47-3.87.13-4.03.61-4.34-.35-6.63-.37-7.86.46-3.24-.27-.52-.51-1.32-.77-1.35.2-2.71.41-4.05.61-3.63-.76.3-1.11-5.8-1.31Zm27.54.94c4.09.78-5.46,1.27-7.93.71.98-.21.16-.42.96-.63,5.05-.06,3.31.94,6.98-.08Zm8.75-.84c3.67.48-.34.94-2.73,1.38-1.23-.2-2.63.21-3.82-.15,3.02-.83,4.45-.31,6.55-1.23Zm18.43,2.95c-2.38.24-4.79.54-6.97.12,2.44-.44,4.75-.46,6.97-.12Zm214.54,29.74c1.92-.28,7.79-.59,6.91.07-1.96-.29-4.75.21-4.78.55-1.34-.2-2.11-.41-2.13-.62Zm-172.3-31.73c4.29.76-7.79,1.7-7.13.63,3.25.33,3.06-.54,7.13-.63Zm184.72,31.38c4.21-.29,12.54-.82,13.83.14-5.47-.33-2.51.67-4.92,1.06-2.79-.44-1.58-.92-1.92-1.39-2.59.64-7.08.91-6.99.19Zm23.98-.33c-2.03-.09-4.19.29-6.19.05-.28-.79,9.17-.7,6.19-.05Zm-208.06-41.37c-2.65.31-5.23.31-7.71,0,2.74-.58,5.21-.27,7.71,0Zm14.09-.75c2.27-.99,3.69-.02,6.17,0-1.82-.67,2.1-1.15,3.52-1.53,3.63.56-4.87,1.1-1.25,1.66.87-.21.49-.42,2.5-.64,1.14,0,5.88.43,4.41.77-4.29-.44-21.15,1.91-16.97-.02-3.11-.01-10.4.56-10.72-.26,1.93-.49,10.72-.64,12.33.01Zm4.99-1.27c-3.99.45-7.82.38-11.67.37,3.95-.37,7.93-.8,11.67-.37Zm240.51,40.92c3.28.3,11-.91,11.55.03-3.6-.04-10.64.93-11.55-.03Zm-226.49-41.42c.96.21,2.99.43,2.14.64-3.73-.4-5.4-.27-7.05.37-2.23-.72,2.05-.78,4.91-1.01Zm14.25,1.42c1.64.48,3.68-.3,5.29.36-2.24.29-7.73.16-5.29-.36Zm-5.37-2.81c1.9.26,2.57.51,1.32.77-.99-.13-1.94-.39-3-.26-.79.07-1.61.25-2.35.12,1.35-.21,2.68-.42,4.04-.63Zm256.3,42.13c-.86.22-.5.43-2.49.67-1.67-.49-3.55-.15-5.31-.32,2.68-.41,5.34-.74,7.79-.35Zm-223.09-39.69c-.57.25,3.33.27,3.74.37.98-.22.16-.43.95-.64,4.09-.13,5.27.57,2,1.14-4.09-.1-8.25.07-12.26-.2,3.05-.3,4.19-.65,5.57-.66Zm236.71,40.54l-2.95-.47c2.53-.62,6.64.04,2.95.47Zm-216.8-40.11c2.36-.22,4.7-.33,6.9.1-2.43.44-4.72.36-6.96.16.44-.09.83-.18.07-.26Zm251.35,37.65c1.74.17,3.6,0,5.3.32-1.19.17.56.9-2.5.67,1.67-.36-.1-.64-2.21-.36.61.25.54.51-.21.77-1.47-.23-3.14.22-4.56-.2,3.95-.43.22-.77,4.18-1.2Zm-227.87-39.02c3.3.24,10.84-.29,11.47.34-2.26-.17-4.66.14-6.97.15,1.2.27,2.52.13,3.75.37-2.2.24-5.57.42-5.64.91-1.57-.59-2.36-1.18-2.6-1.77Zm243.32,38.83c-1.23.31-.45.6-2.57.92-1.73-.34-1.06-1.26,2.57-.92Zm-227.3-38.25c3.63.54,3.16,1.09,1.85,1.65-.98-.18-1.99-.21-3.01-.24,1.82-.48-2.84-.92,1.15-1.41Zm234.06,38.81c-1.9.39-3.73.55-5.44.19,1.9-.39,3.74-.55,5.44-.19Zm-223.93-39.23c-4.16.16-8.32.38-12.35.05,4.43-.16,5.37-.4,8.59-.41-.46.13-.31.26.67.38,1.07-.14,2.12-.27,3.08-.01Zm6.03.48c-.95.22.69.42.58.63-4.51.56-8.86.47-13.14.18,2.55-.35.83-.68,3.38-1.03,3.02.2,6.17-.03,9.18.22Zm237.45,37.61c-2.91.43-5.07.83-4.18,1.2-2.21-.3-4.64.13-6.9-.04,4.57-.89-2.1-.47.28-1.02,3.47.44,7.27-.3,10.81-.14Zm-231.67-39.03c1.57.21.72.42,2.14.63.82-.13.36-.26.87-.39,3.27.27,1.3.58-1.02.9-.99-.12-1.95-.37-3.01-.24.72.17-.47.34-1.68.52-.73-.12-1.46-.25-2.21-.37,4.27-.58,3.53-.41,4.91-1.04Zm10.31,1.7c2.65-.34,5.13-.02,7.71-.06-2.75.66-7.71.82-7.71.06Zm17.25-1.16c2.34-.12,4.74-.45,6.97-.19-2.22.63-4.16.18-6.24.31.39.12,1.43.24.66.38-1.05-.16-1.23-.33-1.39-.5Zm17.48.75c-2.49-.25-5.19.26-7.64-.19,2.21-.36,8.26-.43,7.64.19Zm-1.61.27c.75.07,1.54.03,2.34-.15,1.91.24,2.59.49,1.34.75-1.24-.14-2.57.01-3.81-.1,1.05-.18-.56-.33.13-.51Zm17.7-.02c-4.29.66-8.38.63-12.4.36,4.26-.6,8.21-.07,12.4-.36Zm2.7-1.42c-1.74.9-6.56.83-10.21.72,3.51-.6,6.96-1.04,10.21-.72Zm18.82,1.5c.73.21.26.42,2.13.62-3.48.51-6.88.79-10.07.21,4.02-.09,7.76-.49,7.93-.83Zm46.02-2.35c-1.9.38,2.37.02,2.94.47-1.48.43-6.56.08-5.3-.32,1.59.19.92-.29,2.36-.16Zm318.43-6.15c2.02.18,4.11.01,6.04.45-3.25.62-6.36.73-9.49.86-.74-.12-1.47-.24-2.21-.36,4.43-.33,3.72-.21,5.65-.95Zm25.33.39c-3.22-.59-7.95.54-6.78-.57,1.79.28,7.65-.12,6.78.57Zm294.6,35.45c-7.36.94,7.52.21-.44,1.53-2.5-.54-1.73-.59-5.23-.62.72-.36,2.16-1.28,5.67-.91Zm-8.15,1.56c-1-.13-1.95-.38-3.03-.24-1.17.27.24,1.17-3.37,1.03-.53-.29,1.46-.6-.52-.89,4.16-.14,3.93-1.21,8.08-1.3.78.46,2.27.92-1.16,1.41Zm-210.4-38.78c2.43-.37,4.69-.2,6.99-.15-.05.44-3.35.33-5.64.91-2.6-.24.12-.51-1.34-.76Zm230.18,37.05c2.09.42.62.84,1.17,1.27-1.97-.25-4.25.55-6.17.03,2.32-.66,2.78-.58,5-1.29Zm-214.07-36.72c-3.72-.23-2.94.62-6.24.28-.67-.29,7.44-1.13,6.24-.28Zm216.35,36.84c1.63-.31,3.16-.31,4.63-.02-.9.32-1.68.54-3.23.52.82-.17-.29-.34-1.39-.5Zm10.88-41.45c-2.7-.39-5.77.44-8.51.16,2.55-.69,8.89-.82,8.51-.16Zm12.41-.3c-3.85-.03-7.79.31-11.53-.08,3.99-.53,7.86-.57,11.53.08Zm5.58-.67c-1.08.18-2.15.35-3.23.53-.75-.12-1.46-.24-2.2-.37,1.95-.53,3.66-.23,5.43-.17Zm244.49,15.83c2.41.34.55.83-1.87,1.34-3.71.48-9.14.63-14.89,1.33-.76-.15-2.24-.29-1.42-.48,1.96-.37,4.97-.75,8.26-1.11,3.29-.38,6.85-.76,9.93-1.07Zm20.86-.83c1.25.21,1.94.44,1.35.72-5.19.31-10.45.95-15.55,1.03,4.75-.67,9.45-1.08,14.21-1.75Zm-124.37-19.25c-.7.52-6.56,1.15-9.45.93,3.27-.74,6.33-.72,9.45-.93Zm147.82,17.18c-6.76.92-12.58,1.39-15.93,2.58l-2.96-.41c4.66-.44,10.25-2.33,18.89-2.17Zm-92.91-22.34c1.34-.26,2.66-.43,3.95-.48,3.81.5-2.8,1.26,2.61,1.72-2.85.18-5.82.85-8.48.34,5.01-.11,6.58-1.02,1.93-1.58Zm149.89,20.08c2.22.24-.4.7-.22,1.03-1.75-.11-3.64.3-5.32-.14,1.88-.39,3.63-.32,5.54-.89Zm-29.11-9.03c2.14.06,3.75-.92,4.86-1.24,3.24.11.54.49,1.35.7.79-.11,1.54-.11,2.28.03-3.86.32-7.16.36-5.59,1.14-1.89.1-3.13-.29-2.89-.63Zm-28.55-10.88c-1.7-.31-3.68.52-5.35.05,1.51-.61,6.63-.59,5.35-.05Zm21.49-.92c-3.94.59-7.87,1.14-11.6.9,3.83-.22,7.86-1.16,11.6-.9Zm15.28-.43c-2.1.35-4.22.7-6.14.27,2.12-.4,4.17-.5,6.14-.27Zm-.92-2.51c1.93.32,2.73.29,3.07-.14,3.39.26-3.53,1.11-4.72.72,1.12-.22,1.4-.4,1.65-.59Zm136.1-3.98c-.05.24-1.05.53-2.33.77-1.28.23-2.83.42-3.95.49.06-.36,4.11-1.41,6.28-1.26Z"/>
  <path class="cls-2" d="m697.73,44.12c-1,.22,1.99.17.65.4,8.86-.99,17.04.17,25.69-.29-3.52-.3-7.08-.46-10.67-.55-3.59-.11-7.2-.16-10.81-.2-.83.15.64.36,1.38.55-2.07-.01-4.22.25-6.24.09Z"/>
  <path class="cls-2" d="m163.6,63.55c2.45.52,5.24.14,7.81.35-2.56-.26-5.05-.68-7.81-.35Z"/>
  <path class="cls-2" d="m303.58,70.71c-2.01.08-1.67.32-2.53.47,1.24.22,2.64-.04,3.99-.12.14.18.33.36,1.36.6,2.06-.36-.86-.56-2.81-.95Z"/>
  <path class="cls-2" d="m193.95,44.07c-3.2-.09,4.81.46,4.32,1.11,1.45-.18.72-.54,1.09-.81-3.25-.64-2.16.35-5.41-.3Z"/>
  <path class="cls-2" d="m241.96,55.49c-1.91.11-2,.35-.26.74.13-.33,2-.31,3.98-.07,1.72-.21-2.88-.42-3.72-.67Z"/>
  <path class="cls-2" d="m233.82,51.78c-.22-.23,1.13-.34-.54-.68-2.13.09-3.01.27-3.35.51,1.45.34,3.2-.08,4.62.36.78-.11-.28-.22-.73-.18Z"/>
  <path class="cls-2" d="m339.3,76.83c2.6.72,2.03-.21,3.27-.33,2.28-.17.14.4,2.91.67,4.38-.51,8.44-.12,12.46.42.82-.21.97-.46,1.8-.67-3.51.21-10.77-.05-16.26-.75-1.92.48-4,.24-4.17.67Z"/>
  <path class="cls-2" d="m227.23,48.2c9.43.53,15.59,1.28,24.88,1.13-1.07-.32-3.27-.33-2.18-.53-3.31-.45-2.06.05-5.52-.03.81-.58-11.54-1.02-8.23-1.28-1.79-.62-7.26.21-8.95.71Z"/>
  <path class="cls-2" d="m378.8,83.18c2.18.61,11.18,1.03,16.19,1.01-5.4-.34-10.77-.67-16.19-1.01Z"/>
  <path class="cls-2" d="m131.43,18.9c-.11.46-2.65-.02-4.88.32,4.85.7,4.8.25,7.03.26.89-.16-1.24-.23-2.16-.58Z"/>
  <path class="cls-2" d="m247.23,49.77c2.86.06,5.58.55,8.6.19-2.61-.76-5.73-.11-8.6-.19Z"/>
  <path class="cls-2" d="m371.07,76c-2.22.09.23.44-.99.58,1.72.32,3.63.11,5.45.17,1.52-.3-3.55,0-4.46-.75Z"/>
  <path class="cls-2" d="m207.88,32.12c.77-.07-.25-.27-.63-.43,1.67-.23,3.08.19,4.78-.14-3-.42-5.97-.9-9.29-.47,2.86.51,4.02.26,5.14,1.04Z"/>
  <path class="cls-2" d="m291.3,45.52c4.07-.08,3.33.49,7.6.75,1.99-.47,1.62-.5,3.43-.79-3.52.11-9.91-.36-11.03.04Z"/>
  <path class="cls-2" d="m457.71,82.28c-1.27-.52,4.14-.04,3.34-.62-1.68-.45-3.74.23-5.35-.36.55.55-3.74.62-.52,1.51,2.15-.16,4.26-.23,6.27.02,1.72-.26-2.88-.32-3.74-.55Z"/>
  <path class="cls-2" d="m471.45,83.4c3.47.57,7.38-.22,10.72.73,2.63-.37-2.04-.42-.56-.66-3.4,0-6.71-.22-10.16-.07Z"/>
  <path class="cls-2" d="m487.87,83.48c-1.4-.27-.54-.45-2.1-.73-4.49.14-8.83-.16-13.09-.71.45,1.09,8.15.57,11.21,1.64,2.8-.53,5.23,0,7.64.59,4.63,0,4.69-.3,8.8-.51-1.51-.19-3.05-.27-4.55-.45-2.22.11.23.44-.98.59-.8.04-1.56-.07-2.36.03-.8-.29,1.94-.43-1.3-.82-2.05-.05-2.9.05-3.26.37Z"/>
  <path class="cls-2" d="m288.78,24.02c-.79.12.26.22.72.18,1.1.24,2.18.48,1.35.6,1.23.22,2.63-.04,3.97-.12-1.98-.32-4.04-.41-6.04-.65Z"/>
  <path class="cls-2" d="m362.03,31.99c-1.38.25,9.73,1.51,13.73,1-1.09-.17-6.11.02-4.52-.5-2.96-.46-6.37.32-9.21-.5Z"/>
  <path class="cls-2" d="m400.56,36c3.12.4,4.32,1.41,9.04,1-.58-1.04-8.42-.61-7.24-1.67-3.53.06,1.73.6-1.8.67Z"/>
  <path class="cls-2" d="m545.96,61.44c-1.77.45,2.88.3,3.74.51,1.54-.14.85-.52,2.44-.3.83-.05.48-.15.08-.25-.49-.1-.98-.21-1.46-.31.79.21-4.03.8-2.43.3-1.45-.2-.8.31-2.37.04Z"/>
  <path class="cls-2" d="m487.07,41.23c-.11.47,6.52.62,9.06.91-1.1.71,5.02,1.51,7.2,1.85.02-.72-1.92-1.53-3.14-2.3-.95,1.24-4.83-.41-9.96-.57-.37.31-1.2.39-3.16.11Z"/>
  <path class="cls-2" d="m511.67,44.74c.89.56,8.61.68,12.15,1,2.46-.38-5.31-.41-2.83-.86-1.43.13-5.94.4-9.32-.14Z"/>
  <path class="cls-2" d="m504.64,42.39c-3.19.19.21.46,1.45.32,1.28.27,1.29.48.56.66,1.24.18,2.57.09,3.81.3-1.36-.28-2.16-1.16,2.43-.28.89-.17-1.14-.48-2.09-.73-2.15.21-4.21.12-6.16-.27Z"/>
  <path class="cls-2" d="m543.69,44.53c-1.25-.16-2.58-.06-3.82-.26-3.03.19.44.61-2.59.8,2.51.04,2.65-.27,6.41-.54Z"/>
  <path class="cls-2" d="m579.35,40.16c-.4.45-1.11.11-3.25.4,2.86.4-1.9.53,2.03.96.8-.1,1.62-.2,2.43-.3-1.37-.38-2.6-.8,1.7-.45,1.91-.29-2.37-.13-2.91-.61Z"/>
  <path class="cls-2" d="m633.5,50.83c-1.96-.21-.47.32.73.15.44.27-.37.5-1.77.72,2.47.22,5.99-.59,3.39-.93-.82.15-1.6.16-2.34.06Z"/>
  <path class="cls-2" d="m718,68.85c.99.14,1.23-.03.82-.11,2.44-.38,4.44.74,6.98,0-2.37-.69-5.1-.26-7.63-.4-.71.16.9.36-.17.51Z"/>
  <path class="cls-2" d="m661.98,41.77c-2.92-.6-6-.66-9.17-.5,3.38.8,7.03.68,10.46,1.3,1.9-.85,7.06-.22,11.03-.47-.78.03-11.28-1.02-12.32-.33Z"/>
  <path class="cls-2" d="m671.71,42.92c4.08.2,8.38-.32,12.32.33,1.15-1.4,12.04.64,17.83.09.11-.21-1.52-.47-.57-.65-3.37.03-6.91.58-9.97-.39-5.02.36-9.78-.13-14.66-.27-.87.19,1.16.46,2.13.69-2.41.17-4.56-.34-7.07.2Z"/>
  <path class="cls-2" d="m664.15,39.79c.72,1.37,18.31,1.72,22.13,1.23-7.15-.28-17.78.04-22.13-1.23Z"/>
  <path class="cls-2" d="m721.47,42.66c3.03.21,6.09.34,9.15.43.11-.52-6.52-.52-9.15-.43Z"/>
  <path class="cls-2" d="m762.9,43.96c4.72.6,16.26.85,23.75.84-3.02-.78-6.49-.03-7.47-.91-.83.91-6.23-.27-9.39.33-2.8-.4,2.46-.86-2.03-.93,1.22.69-1,.8-4.85.67Z"/>
  <path class="cls-2" d="m761.74,42.67c-.16.7,6.61.24,9.17.43,1.75-.45-2.89-.21-3.66-.71-2.81.48-2.1.63-5.51.28Z"/>
  <path class="cls-2" d="m788.19,44.83c5.29.5,10.64.69,16.06.69-2.06-1.61-10.94-.85-16.06-.69Z"/>
  <path class="cls-2" d="m871.1,47.06c2.26.14,4.55.02,8.51-.02-.73-.14-1.46-.27-2.19-.41-2.24.58-4.12,0-6.32.43Z"/>
  <path class="cls-2" d="m915.59,45.7l-4.85.71c3.9.24,4.17-.77,8.59-.29,1.71-.32-2.89-.21-3.74-.42Z"/>
  <path class="cls-2" d="m960.13,46.51c1.03,1.21,4.74-.61,8.3.69.27-.17.55-.34,1.7-.5-3.17-.59-6.67-.08-9.99-.19Z"/>
  <path class="cls-2" d="m1033.48,46.54c-1.96-.16-.48.34.72.13,1.29.3-.69.59-1.03.89,2.56.06,5.31-.54,7.71,0,3.47-1.25,7.43-.45,11.75-.63,3.52-.25-1.75-.51,1.76-.76-4.46.34-8.69-.2-13.22.37-1.42-.21-.56-.43-2.14-.64-.03.41-3.44.65-5.56.63Z"/>
  <path class="cls-2" d="m1159.02,46.9c3.95.56,8.43-.74,12.33-.05.87-.22-1.17-.42-2.12-.63-3.58.8-6.65-.12-10.21.68Z"/>
  <path class="cls-2" d="m1240.23,45.69c-.08.5,9.71.44,9.99.05-3.31-.06-6.74.27-9.99-.05Z"/>
  <path class="cls-2" d="m1316.65,47.61c1.24-.35,1.05-.69,1.81-1.03-2.01-.15-4.12.04-6.24.3,1.42.42,3.1-.04,4.63-.04,1.36.25-5.01.32-.2.77Z"/>
  <path class="cls-2" d="m1614.62,39.96c-.63.7,5.56.09,7.58.4.83-.1.48-.18.07-.25-.48-.08-.97-.15-1.47-.23-2.16.41-4.12.02-6.18.09Z"/>
  <path class="cls-2" d="m1878.51,82.63c4.34.08,8.76-.13,13.08.1,1.98-.76,7.65-.42,11.68-.41.51-.13.08-.25.88-.38-.77-.08-.38-.17.07-.25-8.64.57-17.05.32-25.7.95Z"/>
  <path class="cls-2" d="m2066.08,29.76c4.15-.37-.77-.67,3.38-1.04-.75-.07-1.55.01-2.27-.11l-1.62.27c3.99.27-3.45.62.51.89Z"/>
  <path class="cls-2" d="m2100.6,30.17c4.16.7-.26-.98,4.02-.66,1.52-.47-3.36-.44-4.62.03,1.74.2,2.13.41.6.63Z"/>
</svg>